<svg xmlns="http://www.w3.org/2000/svg" xmlns:xlink="http://www.w3.org/1999/xlink" width="800" zoomAndPan="magnify" viewBox="0 0 600 599.999999" height="800" preserveAspectRatio="xMidYMid meet" version="1.0"><path fill="#43b02a" d="M 217.628906 487.117188 C 186.78125 487.117188 161.695312 512.203125 161.695312 543.050781 C 161.695312 573.898438 186.78125 598.984375 217.628906 598.984375 C 248.472656 598.984375 273.558594 573.898438 273.558594 543.050781 C 273.558594 512.203125 248.472656 487.117188 217.628906 487.117188 Z M 217.628906 568.472656 C 203.605469 568.472656 192.203125 557.074219 192.203125 543.050781 C 192.203125 529.027344 203.605469 517.628906 217.628906 517.628906 C 231.648438 517.628906 243.050781 529.027344 243.050781 543.050781 C 243.050781 557.074219 231.648438 568.472656 217.628906 568.472656 Z M 217.628906 568.472656 " fill-opacity="1" fill-rule="nonzero"/><path fill="#43b02a" d="M 421.015625 487.117188 C 390.171875 487.117188 365.085938 512.203125 365.085938 543.050781 C 365.085938 573.898438 390.171875 598.984375 421.015625 598.984375 C 451.863281 598.984375 476.949219 573.898438 476.949219 543.050781 C 476.949219 512.203125 451.863281 487.117188 421.015625 487.117188 Z M 421.015625 568.472656 C 406.996094 568.472656 395.59375 557.074219 395.59375 543.050781 C 395.59375 529.027344 406.996094 517.628906 421.015625 517.628906 C 435.039062 517.628906 446.441406 529.027344 446.441406 543.050781 C 446.441406 557.074219 435.039062 568.472656 421.015625 568.472656 Z M 421.015625 568.472656 " fill-opacity="1" fill-rule="nonzero"/><path fill="#43b02a" d="M 504.417969 264.144531 C 496.511719 261.164062 487.734375 265.238281 484.816406 273.152344 L 459.488281 341.546875 C 458.816406 343.496094 456.886719 344.746094 454.585938 344.746094 L 156.8125 344.746094 L 126.292969 151.527344 L 320.535156 151.527344 C 328.957031 151.527344 335.789062 144.691406 335.789062 136.269531 C 335.789062 127.851562 328.957031 121.015625 320.535156 121.015625 L 121.472656 121.015625 L 113.371094 69.722656 C 110.628906 52.304688 95.851562 39.660156 78.214844 39.660156 L 14.238281 39.660156 C 5.816406 39.660156 -1.015625 46.492188 -1.015625 54.914062 C -1.015625 63.335938 5.816406 70.167969 14.238281 70.167969 L 78.214844 70.167969 C 80.734375 70.167969 82.839844 71.96875 83.21875 74.46875 L 138.832031 426.546875 C 141.574219 443.96875 156.351562 456.609375 173.988281 456.609375 L 482.035156 456.609375 C 490.457031 456.609375 497.289062 449.777344 497.289062 441.355469 C 497.289062 432.933594 490.457031 426.101562 482.035156 426.101562 L 173.988281 426.101562 C 171.46875 426.101562 169.363281 424.304688 168.984375 421.800781 L 161.632812 375.253906 L 454.585938 375.253906 C 469.820312 375.253906 483.363281 365.75 488.191406 351.867188 L 513.417969 283.738281 C 516.335938 275.84375 512.304688 267.0625 504.417969 264.144531 Z M 504.417969 264.144531 " fill-opacity="1" fill-rule="nonzero"/><path fill="#43b02a" d="M 482.035156 -1.015625 C 417.542969 -1.015625 365.085938 51.449219 365.085938 115.933594 C 365.085938 180.414062 417.542969 232.882812 482.035156 232.882812 C 546.527344 232.882812 598.984375 180.414062 598.984375 115.933594 C 598.984375 51.449219 546.527344 -1.015625 482.035156 -1.015625 Z M 482.035156 202.371094 C 434.363281 202.371094 395.59375 163.589844 395.59375 115.933594 C 395.59375 68.273438 434.363281 29.492188 482.035156 29.492188 C 529.703125 29.492188 568.472656 68.273438 568.472656 115.933594 C 568.472656 163.589844 529.703125 202.371094 482.035156 202.371094 Z M 482.035156 202.371094 " fill-opacity="1" fill-rule="nonzero"/><path fill="#43b02a" d="M 522.710938 100.679688 L 497.289062 100.679688 L 497.289062 75.253906 C 497.289062 66.832031 490.457031 60 482.035156 60 C 473.613281 60 466.78125 66.832031 466.78125 75.253906 L 466.78125 100.679688 L 441.355469 100.679688 C 432.933594 100.679688 426.101562 107.511719 426.101562 115.933594 C 426.101562 124.355469 432.933594 131.1875 441.355469 131.1875 L 466.78125 131.1875 L 466.78125 156.609375 C 466.78125 165.03125 473.613281 171.863281 482.035156 171.863281 C 490.457031 171.863281 497.289062 165.03125 497.289062 156.609375 L 497.289062 131.1875 L 522.710938 131.1875 C 531.132812 131.1875 537.964844 124.355469 537.964844 115.933594 C 537.964844 107.511719 531.132812 100.679688 522.710938 100.679688 Z M 522.710938 100.679688 " fill-opacity="1" fill-rule="nonzero"/></svg>