<svg xmlns="http://www.w3.org/2000/svg" xmlns:xlink="http://www.w3.org/1999/xlink" width="800" zoomAndPan="magnify" viewBox="0 0 600 599.999999" height="800" preserveAspectRatio="xMidYMid meet" version="1.0"><path fill="#00a0e9" d="M 184.8125 49.921875 L 196.84375 49.921875 C 200.4375 51.25 204.421875 51.40625 208.09375 52.65625 C 208.171875 52.734375 208.484375 52.8125 208.640625 52.8125 C 209.03125 52.96875 209.96875 53.28125 210.4375 53.4375 C 210.515625 53.515625 210.828125 53.59375 210.90625 53.671875 C 217.9375 56.09375 224.421875 60.078125 230.203125 64.6875 C 230.28125 64.765625 230.4375 64.921875 230.515625 65 C 233.953125 67.8125 237.078125 71.015625 239.96875 74.375 C 240.046875 74.453125 240.203125 74.609375 240.28125 74.6875 C 245.28125 80.46875 249.5 86.796875 252.625 93.75 C 258.5625 107.03125 261.609375 121.328125 263.796875 135.625 C 264.109375 137.421875 264.34375 139.21875 264.03125 141.015625 C 243.5625 146.640625 224.265625 156.484375 207.703125 169.765625 C 207.625 169.84375 207.390625 170 207.3125 170 C 198.796875 176.875 190.90625 184.6875 184.03125 193.203125 C 183.953125 193.28125 183.796875 193.4375 183.71875 193.515625 C 172.546875 207.421875 163.640625 223.125 157.859375 240 C 157.859375 240.078125 157.703125 240.390625 157.703125 240.46875 C 157.546875 240.9375 157.234375 241.875 157.078125 242.265625 C 157 242.5 156.921875 242.8125 156.84375 243.046875 C 156.6875 243.4375 156.453125 244.296875 156.296875 244.765625 C 156.21875 244.921875 156.140625 245.15625 156.140625 245.3125 C 152.390625 257.65625 149.96875 270.390625 149.65625 283.28125 C 146.609375 282.578125 144.96875 279.21875 142.546875 277.5 C 142.46875 277.421875 142.3125 277.265625 142.234375 277.1875 C 139.578125 274.375 136.765625 271.640625 134.265625 268.671875 C 134.1875 268.59375 134.109375 268.4375 134.03125 268.359375 C 132.703125 266.875 131.453125 265.390625 130.203125 263.828125 C 130.125 263.75 130.046875 263.59375 129.96875 263.515625 C 115.125 244.609375 103.71875 222.96875 96.6875 200.078125 C 96.6875 199.921875 96.609375 199.765625 96.609375 199.609375 C 89.890625 177.03125 88.09375 152.5 94.96875 129.6875 C 94.96875 129.609375 95.046875 129.375 95.046875 129.21875 C 99.265625 115.46875 106.609375 102.65625 116.0625 91.71875 C 116.140625 91.640625 116.296875 91.40625 116.375 91.328125 C 122.78125 84.140625 129.734375 77.5 137.234375 71.484375 C 137.3125 71.40625 137.46875 71.25 137.625 71.171875 C 147.9375 63.203125 159.5 56.328125 172.234375 52.734375 C 172.3125 52.734375 172.546875 52.65625 172.703125 52.65625 C 176.609375 51.328125 180.90625 51.25 184.8125 49.921875 Z M 184.8125 49.921875 " fill-opacity="1" fill-rule="nonzero"/><path fill="#00a0e9" d="M 261.609375 152.890625 C 262.9375 152.421875 264.265625 152.03125 265.59375 151.875 C 266.21875 162.5 266.84375 173.203125 266.375 183.828125 C 266.0625 186.484375 266.53125 189.296875 265.75 191.875 C 255.984375 195.859375 246.84375 201.171875 238.640625 207.734375 C 238.5625 207.8125 238.40625 207.890625 238.25 207.96875 C 232.390625 212.734375 227.078125 218.046875 222.3125 223.828125 C 222.234375 223.984375 222.078125 224.140625 222 224.21875 C 214.34375 233.75 208.25 244.53125 204.265625 256.09375 C 204.265625 256.25 204.1875 256.484375 204.109375 256.640625 C 203.953125 257.109375 203.640625 257.96875 203.484375 258.4375 C 203.40625 258.59375 203.328125 258.90625 203.328125 259.0625 C 199.03125 272.890625 197.625 287.578125 199.34375 302.03125 C 199.578125 303.59375 199.8125 305.234375 199.734375 306.796875 C 194.5 306.484375 189.1875 305.859375 184.1875 304.140625 C 184.03125 304.0625 183.796875 303.984375 183.640625 303.984375 C 175.359375 301.328125 167.46875 297.265625 160.4375 292.265625 C 159.1875 261.40625 169.65625 230.546875 187.859375 205.703125 C 187.9375 205.546875 188.015625 205.390625 188.09375 205.3125 C 188.796875 204.296875 189.578125 203.359375 190.28125 202.421875 C 190.359375 202.34375 190.515625 202.109375 190.59375 202.03125 C 191.53125 200.78125 192.546875 199.609375 193.5625 198.359375 C 193.640625 198.28125 193.796875 198.125 193.875 198.046875 C 199.421875 191.484375 205.59375 185.3125 212.234375 179.84375 C 212.3125 179.765625 212.46875 179.609375 212.625 179.53125 C 213.796875 178.515625 215.046875 177.5 216.296875 176.5625 C 216.375 176.484375 216.609375 176.328125 216.6875 176.25 C 217.625 175.546875 218.5625 174.84375 219.578125 174.140625 C 219.65625 174.0625 219.890625 173.90625 219.96875 173.828125 C 231.0625 165.78125 243.328125 159.296875 256.21875 154.6875 C 256.375 154.6875 256.609375 154.53125 256.765625 154.53125 C 257.234375 154.375 258.171875 154.0625 258.640625 153.90625 C 258.796875 153.828125 259.03125 153.75 259.1875 153.671875 C 259.65625 153.515625 260.59375 153.203125 261.0625 153.046875 C 261.21875 153.046875 261.453125 152.96875 261.609375 152.890625 Z M 261.609375 152.890625 " fill-opacity="1" fill-rule="nonzero"/><path fill="#00a0e9" d="M 262.46875 205 C 263.25 204.53125 264.109375 204.296875 265.046875 204.0625 C 265.125 208.203125 264.421875 212.265625 263.953125 216.328125 C 262.3125 228.671875 260.125 240.9375 256.453125 252.890625 C 256.453125 253.046875 256.375 253.28125 256.375 253.4375 C 253.25 263.671875 249.34375 273.828125 243.484375 282.8125 C 243.40625 282.96875 243.328125 283.125 243.25 283.28125 C 237 292.421875 228.09375 300.15625 217.46875 303.90625 C 217.390625 303.984375 217.15625 304.0625 217 304.0625 C 214.96875 304.609375 212.625 306.171875 210.59375 305.234375 C 206.375 280.078125 212.9375 253.4375 228.5625 233.125 C 228.640625 233.046875 228.796875 232.890625 228.875 232.734375 C 229.8125 231.484375 230.828125 230.3125 231.84375 229.0625 C 231.921875 228.984375 232.078125 228.828125 232.15625 228.75 C 235.515625 224.765625 239.1875 221.09375 243.171875 217.734375 C 243.25 217.65625 243.484375 217.5 243.5625 217.5 C 249.34375 212.578125 255.75 208.515625 262.46875 205 Z M 262.46875 205 " fill-opacity="1" fill-rule="nonzero"/><path fill="#625e56" d="M 172.234375 52.734375 C 172.3125 52.734375 172.546875 52.65625 172.703125 52.65625 C 172.546875 52.65625 172.3125 52.734375 172.234375 52.734375 Z M 172.234375 52.734375 " fill-opacity="0.18" fill-rule="nonzero"/><path fill="#625e56" d="M 208.09375 52.65625 C 208.171875 52.734375 208.484375 52.8125 208.640625 52.8125 C 208.484375 52.8125 208.171875 52.734375 208.09375 52.65625 Z M 208.09375 52.65625 " fill-opacity="0.18" fill-rule="nonzero"/><path fill="#625e56" d="M 210.4375 53.4375 C 210.515625 53.515625 210.828125 53.59375 210.90625 53.671875 C 210.828125 53.59375 210.515625 53.515625 210.4375 53.4375 Z M 210.4375 53.4375 " fill-opacity="0.18" fill-rule="nonzero"/><path fill="#625e56" d="M 230.203125 64.6875 C 230.28125 64.765625 230.4375 64.921875 230.515625 65 C 230.4375 64.921875 230.28125 64.765625 230.203125 64.6875 Z M 230.203125 64.6875 " fill-opacity="0.18" fill-rule="nonzero"/><path fill="#625e56" d="M 137.234375 71.484375 C 137.3125 71.40625 137.46875 71.25 137.625 71.171875 C 137.46875 71.25 137.3125 71.40625 137.234375 71.484375 Z M 137.234375 71.484375 " fill-opacity="0.18" fill-rule="nonzero"/><path fill="#625e56" d="M 429.8125 72.734375 L 430.671875 72.34375 L 431.296875 72.734375 C 430.90625 72.890625 430.125 73.203125 429.65625 73.359375 Z M 429.8125 72.734375 " fill-opacity="0.18" fill-rule="nonzero"/><path fill="#625e56" d="M 489.109375 73.515625 L 489.734375 73.125 L 490.59375 73.4375 L 490.75 74.140625 C 490.28125 73.984375 489.5 73.671875 489.109375 73.515625 Z M 489.109375 73.515625 " fill-opacity="0.18" fill-rule="nonzero"/><path fill="#625e56" d="M 239.96875 74.375 C 240.046875 74.453125 240.203125 74.609375 240.28125 74.6875 C 240.203125 74.609375 240.046875 74.453125 239.96875 74.375 Z M 239.96875 74.375 " fill-opacity="0.18" fill-rule="nonzero"/><path fill="#625e56" d="M 421.609375 74.21875 L 422.46875 73.90625 L 423.09375 74.296875 C 422.703125 74.453125 421.84375 74.765625 421.453125 74.921875 Z M 421.609375 74.21875 " fill-opacity="0.18" fill-rule="nonzero"/><path fill="#625e56" d="M 116.0625 91.71875 C 116.140625 91.640625 116.296875 91.40625 116.375 91.328125 C 116.296875 91.40625 116.140625 91.640625 116.0625 91.71875 Z M 116.0625 91.71875 " fill-opacity="0.18" fill-rule="nonzero"/><path fill="#625e56" d="M 94.96875 129.6875 C 94.96875 129.609375 95.046875 129.375 95.046875 129.21875 C 95.046875 129.375 94.96875 129.609375 94.96875 129.6875 Z M 94.96875 129.6875 " fill-opacity="0.18" fill-rule="nonzero"/><path fill="#625e56" d="M 339.1875 138.75 C 339.65625 138.90625 340.4375 139.21875 340.828125 139.375 L 340.203125 139.765625 L 339.34375 139.453125 Z M 339.1875 138.75 " fill-opacity="0.18" fill-rule="nonzero"/><path fill="#625e56" d="M 333.40625 148.75 L 334.03125 148.359375 L 334.890625 148.671875 L 334.96875 149.375 C 334.578125 149.21875 333.796875 148.90625 333.40625 148.75 Z M 333.40625 148.75 " fill-opacity="0.18" fill-rule="nonzero"/><path fill="#625e56" d="M 261.0625 153.046875 C 261.21875 153.046875 261.453125 152.96875 261.609375 152.890625 C 261.453125 152.96875 261.21875 153.046875 261.0625 153.046875 Z M 261.0625 153.046875 " fill-opacity="0.18" fill-rule="nonzero"/><path fill="#625e56" d="M 258.640625 153.90625 C 258.796875 153.828125 259.03125 153.75 259.1875 153.671875 C 259.03125 153.75 258.796875 153.828125 258.640625 153.90625 Z M 258.640625 153.90625 " fill-opacity="0.18" fill-rule="nonzero"/><path fill="#625e56" d="M 256.21875 154.6875 C 256.375 154.6875 256.609375 154.53125 256.765625 154.53125 C 256.609375 154.53125 256.375 154.6875 256.21875 154.6875 Z M 256.21875 154.6875 " fill-opacity="0.18" fill-rule="nonzero"/><path fill="#625e56" d="M 397.234375 164.921875 C 397.3125 165 397.546875 165.078125 397.625 165.15625 C 397.546875 165.078125 397.3125 165 397.234375 164.921875 Z M 397.234375 164.921875 " fill-opacity="0.18" fill-rule="nonzero"/><path fill="#625e56" d="M 207.3125 170 C 207.390625 170 207.625 169.84375 207.703125 169.765625 C 207.625 169.84375 207.390625 170 207.3125 170 Z M 207.3125 170 " fill-opacity="0.18" fill-rule="nonzero"/><path fill="#625e56" d="M 557.625 171.09375 C 557.78125 170.703125 558.09375 169.921875 558.25 169.53125 L 558.640625 170.15625 L 558.328125 170.9375 Z M 557.625 171.09375 " fill-opacity="0.18" fill-rule="nonzero"/><path fill="#625e56" d="M 219.578125 174.140625 C 219.65625 174.0625 219.890625 173.90625 219.96875 173.828125 C 219.890625 173.90625 219.65625 174.0625 219.578125 174.140625 Z M 219.578125 174.140625 " fill-opacity="0.18" fill-rule="nonzero"/><path fill="#625e56" d="M 392.3125 174.609375 C 392.390625 174.6875 392.625 174.84375 392.703125 174.921875 C 392.625 174.84375 392.390625 174.6875 392.3125 174.609375 Z M 392.3125 174.609375 " fill-opacity="0.18" fill-rule="nonzero"/><path fill="#625e56" d="M 216.296875 176.5625 C 216.375 176.484375 216.609375 176.328125 216.6875 176.25 C 216.609375 176.328125 216.375 176.484375 216.296875 176.5625 Z M 216.296875 176.5625 " fill-opacity="0.18" fill-rule="nonzero"/><path fill="#625e56" d="M 212.234375 179.84375 C 212.3125 179.765625 212.46875 179.609375 212.625 179.53125 C 212.46875 179.609375 212.3125 179.765625 212.234375 179.84375 Z M 212.234375 179.84375 " fill-opacity="0.18" fill-rule="nonzero"/><path fill="#625e56" d="M 324.578125 185.625 C 324.96875 185.78125 325.75 186.015625 326.21875 186.171875 L 325.515625 186.640625 L 324.734375 186.25 Z M 324.578125 185.625 " fill-opacity="0.18" fill-rule="nonzero"/><path fill="#625e56" d="M 183.71875 193.515625 C 183.796875 193.4375 183.953125 193.28125 184.03125 193.203125 C 183.953125 193.28125 183.796875 193.4375 183.71875 193.515625 Z M 183.71875 193.515625 " fill-opacity="0.18" fill-rule="nonzero"/><path fill="#625e56" d="M 292.859375 195.390625 L 293.71875 195.078125 L 294.34375 195.546875 C 293.875 195.625 293.09375 195.9375 292.625 196.015625 Z M 292.859375 195.390625 " fill-opacity="0.18" fill-rule="nonzero"/><path fill="#625e56" d="M 193.5625 198.359375 C 193.640625 198.28125 193.796875 198.125 193.875 198.046875 C 193.796875 198.125 193.640625 198.28125 193.5625 198.359375 Z M 193.5625 198.359375 " fill-opacity="0.18" fill-rule="nonzero"/><path fill="#625e56" d="M 96.609375 199.609375 C 96.609375 199.765625 96.6875 199.921875 96.6875 200.078125 C 96.6875 199.921875 96.609375 199.765625 96.609375 199.609375 Z M 96.609375 199.609375 " fill-opacity="0.18" fill-rule="nonzero"/><path fill="#625e56" d="M 190.28125 202.421875 C 190.359375 202.34375 190.515625 202.109375 190.59375 202.03125 C 190.515625 202.109375 190.359375 202.34375 190.28125 202.421875 Z M 190.28125 202.421875 " fill-opacity="0.18" fill-rule="nonzero"/><path fill="#625e56" d="M 187.859375 205.703125 C 187.9375 205.546875 188.015625 205.390625 188.09375 205.3125 C 188.015625 205.390625 187.9375 205.546875 187.859375 205.703125 Z M 187.859375 205.703125 " fill-opacity="0.18" fill-rule="nonzero"/><path fill="#625e56" d="M 238.25 207.96875 C 238.40625 207.890625 238.5625 207.8125 238.640625 207.734375 C 238.5625 207.8125 238.40625 207.890625 238.25 207.96875 Z M 238.25 207.96875 " fill-opacity="0.18" fill-rule="nonzero"/><path fill="#625e56" d="M 243.171875 217.734375 C 243.25 217.65625 243.484375 217.5 243.5625 217.5 C 243.484375 217.5 243.25 217.65625 243.171875 217.734375 Z M 243.171875 217.734375 " fill-opacity="0.18" fill-rule="nonzero"/><path fill="#625e56" d="M 525.984375 217.734375 C 526.0625 217.65625 526.296875 217.5 526.375 217.421875 C 526.296875 217.5 526.0625 217.65625 525.984375 217.734375 Z M 525.984375 217.734375 " fill-opacity="0.18" fill-rule="nonzero"/><path fill="#625e56" d="M 369.5 219.0625 C 369.578125 219.140625 369.8125 219.296875 369.890625 219.375 C 369.8125 219.296875 369.578125 219.140625 369.5 219.0625 Z M 369.5 219.0625 " fill-opacity="0.18" fill-rule="nonzero"/><path fill="#625e56" d="M 388.328125 223.046875 C 388.40625 223.125 388.5625 223.359375 388.640625 223.4375 C 388.5625 223.359375 388.40625 223.125 388.328125 223.046875 Z M 388.328125 223.046875 " fill-opacity="0.18" fill-rule="nonzero"/><path fill="#625e56" d="M 222 224.21875 C 222.078125 224.140625 222.234375 223.984375 222.3125 223.828125 C 222.234375 223.984375 222.078125 224.140625 222 224.21875 Z M 222 224.21875 " fill-opacity="0.18" fill-rule="nonzero"/><path fill="#625e56" d="M 376.921875 226.328125 C 377 226.40625 377.15625 226.5625 377.234375 226.640625 C 377.15625 226.5625 377 226.40625 376.921875 226.328125 Z M 376.921875 226.328125 " fill-opacity="0.18" fill-rule="nonzero"/><path fill="#625e56" d="M 231.84375 229.0625 C 231.921875 228.984375 232.078125 228.828125 232.15625 228.75 C 232.078125 228.828125 231.921875 228.984375 231.84375 229.0625 Z M 231.84375 229.0625 " fill-opacity="0.18" fill-rule="nonzero"/><path fill="#625e56" d="M 228.5625 233.125 C 228.640625 233.046875 228.796875 232.890625 228.875 232.734375 C 228.796875 232.890625 228.640625 233.046875 228.5625 233.125 Z M 228.5625 233.125 " fill-opacity="0.18" fill-rule="nonzero"/><path fill="#625e56" d="M 157.703125 240.46875 C 157.703125 240.390625 157.859375 240.078125 157.859375 240 C 157.859375 240.078125 157.703125 240.390625 157.703125 240.46875 Z M 157.703125 240.46875 " fill-opacity="0.18" fill-rule="nonzero"/><path fill="#625e56" d="M 156.84375 243.046875 C 156.921875 242.8125 157 242.5 157.078125 242.265625 C 157 242.5 156.921875 242.8125 156.84375 243.046875 Z M 156.84375 243.046875 " fill-opacity="0.18" fill-rule="nonzero"/><path fill="#625e56" d="M 459.734375 244.53125 C 460.125 244.375 460.984375 244.0625 461.375 243.90625 L 461.21875 244.53125 L 460.4375 244.921875 Z M 459.734375 244.53125 " fill-opacity="0.18" fill-rule="nonzero"/><path fill="#625e56" d="M 156.140625 245.3125 C 156.140625 245.15625 156.21875 244.921875 156.296875 244.765625 C 156.21875 244.921875 156.140625 245.15625 156.140625 245.3125 Z M 156.140625 245.3125 " fill-opacity="0.18" fill-rule="nonzero"/><path fill="#625e56" d="M 344.890625 247.109375 C 345.28125 247.265625 346.0625 247.578125 346.53125 247.734375 L 345.828125 248.125 L 345.046875 247.8125 Z M 344.890625 247.109375 " fill-opacity="0.18" fill-rule="nonzero"/><path fill="#625e56" d="M 256.375 253.4375 C 256.375 253.28125 256.453125 253.046875 256.453125 252.890625 C 256.453125 253.046875 256.375 253.28125 256.375 253.4375 Z M 256.375 253.4375 " fill-opacity="0.18" fill-rule="nonzero"/><path fill="#625e56" d="M 204.109375 256.640625 C 204.1875 256.484375 204.265625 256.25 204.265625 256.09375 C 204.265625 256.25 204.1875 256.484375 204.109375 256.640625 Z M 204.109375 256.640625 " fill-opacity="0.18" fill-rule="nonzero"/><path fill="#625e56" d="M 203.328125 259.0625 C 203.328125 258.90625 203.40625 258.59375 203.484375 258.4375 C 203.40625 258.59375 203.328125 258.90625 203.328125 259.0625 Z M 203.328125 259.0625 " fill-opacity="0.18" fill-rule="nonzero"/><path fill="#625e56" d="M 129.96875 263.515625 C 130.046875 263.59375 130.125 263.75 130.203125 263.828125 C 130.125 263.75 130.046875 263.59375 129.96875 263.515625 Z M 129.96875 263.515625 " fill-opacity="0.18" fill-rule="nonzero"/><path fill="#625e56" d="M 134.03125 268.359375 C 134.109375 268.4375 134.1875 268.59375 134.265625 268.671875 C 134.1875 268.59375 134.109375 268.4375 134.03125 268.359375 Z M 134.03125 268.359375 " fill-opacity="0.18" fill-rule="nonzero"/><path fill="#625e56" d="M 396.296875 275.859375 C 396.453125 275.78125 396.6875 275.703125 396.84375 275.703125 C 396.6875 275.703125 396.453125 275.78125 396.296875 275.859375 Z M 396.296875 275.859375 " fill-opacity="0.18" fill-rule="nonzero"/><path fill="#625e56" d="M 424.109375 275.703125 C 424.1875 275.703125 424.5 275.78125 424.578125 275.859375 C 424.5 275.78125 424.1875 275.703125 424.109375 275.703125 Z M 424.109375 275.703125 " fill-opacity="0.18" fill-rule="nonzero"/><path fill="#625e56" d="M 142.234375 277.1875 C 142.3125 277.265625 142.46875 277.421875 142.546875 277.5 C 142.46875 277.421875 142.3125 277.265625 142.234375 277.1875 Z M 142.234375 277.1875 " fill-opacity="0.18" fill-rule="nonzero"/><path fill="#625e56" d="M 243.25 283.28125 C 243.328125 283.125 243.40625 282.96875 243.484375 282.8125 C 243.40625 282.96875 243.328125 283.125 243.25 283.28125 Z M 243.25 283.28125 " fill-opacity="0.18" fill-rule="nonzero"/><path fill="#625e56" d="M 378.484375 285.703125 C 378.5625 285.625 378.796875 285.46875 378.875 285.390625 C 378.796875 285.46875 378.5625 285.625 378.484375 285.703125 Z M 378.484375 285.703125 " fill-opacity="0.18" fill-rule="nonzero"/><path fill="#625e56" d="M 183.640625 303.984375 C 183.796875 303.984375 184.03125 304.0625 184.1875 304.140625 C 184.03125 304.0625 183.796875 303.984375 183.640625 303.984375 Z M 183.640625 303.984375 " fill-opacity="0.18" fill-rule="nonzero"/><path fill="#625e56" d="M 217 304.0625 C 217.15625 304.0625 217.390625 303.984375 217.46875 303.90625 C 217.390625 303.984375 217.15625 304.0625 217 304.0625 Z M 217 304.0625 " fill-opacity="0.18" fill-rule="nonzero"/><path fill="#625e56" d="M 475.515625 310.390625 C 475.59375 310.46875 475.75 310.625 475.828125 310.703125 C 475.75 310.625 475.59375 310.46875 475.515625 310.390625 Z M 475.515625 310.390625 " fill-opacity="0.18" fill-rule="nonzero"/><path fill="#625e56" d="M 260.90625 332.109375 L 261.53125 331.71875 L 262.3125 332.109375 L 262.46875 332.734375 C 262.078125 332.578125 261.296875 332.265625 260.90625 332.109375 Z M 260.90625 332.109375 " fill-opacity="0.18" fill-rule="nonzero"/><path fill="#625e56" d="M 264.96875 332.890625 C 265.359375 332.890625 266.0625 332.890625 266.453125 332.890625 L 266.53125 333.59375 C 266.140625 333.4375 265.359375 333.046875 264.96875 332.890625 Z M 264.96875 332.890625 " fill-opacity="0.18" fill-rule="nonzero"/><path fill="#625e56" d="M 443.71875 335.78125 C 443.796875 335.625 443.875 335.390625 443.875 335.3125 C 443.875 335.390625 443.796875 335.625 443.71875 335.78125 Z M 443.71875 335.78125 " fill-opacity="0.18" fill-rule="nonzero"/><path fill="#625e56" d="M 149.890625 336.71875 C 150.359375 336.484375 151.296875 336.09375 151.765625 335.9375 C 151.296875 336.09375 150.359375 336.484375 149.890625 336.71875 Z M 149.890625 336.71875 " fill-opacity="0.18" fill-rule="nonzero"/><path fill="#625e56" d="M 145.90625 337.5 C 146.375 337.34375 147.234375 336.953125 147.703125 336.796875 C 147.234375 336.953125 146.375 337.34375 145.90625 337.5 Z M 145.90625 337.5 " fill-opacity="0.18" fill-rule="nonzero"/><path fill="#625e56" d="M 381.765625 348.671875 C 381.84375 348.59375 382 348.359375 382.078125 348.28125 C 382 348.359375 381.84375 348.59375 381.765625 348.671875 Z M 381.765625 348.671875 " fill-opacity="0.18" fill-rule="nonzero"/><path fill="#625e56" d="M 305.125 350.78125 C 305.203125 350.859375 305.4375 351.015625 305.515625 351.09375 C 305.4375 351.015625 305.203125 350.859375 305.125 350.78125 Z M 305.125 350.78125 " fill-opacity="0.18" fill-rule="nonzero"/><path fill="#625e56" d="M 393.25 351.171875 C 393.328125 351.015625 393.484375 350.859375 393.5625 350.78125 C 393.484375 350.859375 393.328125 351.015625 393.25 351.171875 Z M 393.25 351.171875 " fill-opacity="0.18" fill-rule="nonzero"/><path fill="#625e56" d="M 369.5 361.5625 C 369.578125 361.484375 369.8125 361.328125 369.890625 361.25 C 369.8125 361.328125 369.578125 361.484375 369.5 361.5625 Z M 369.5 361.5625 " fill-opacity="0.18" fill-rule="nonzero"/><path fill="#625e56" d="M 243.171875 362.890625 C 243.25 362.96875 243.484375 363.125 243.5625 363.203125 C 243.484375 363.125 243.25 362.96875 243.171875 362.890625 Z M 243.171875 362.890625 " fill-opacity="0.18" fill-rule="nonzero"/><path fill="#625e56" d="M 250.515625 368.515625 C 250.59375 368.59375 250.828125 368.75 250.90625 368.828125 C 250.828125 368.75 250.59375 368.59375 250.515625 368.515625 Z M 250.515625 368.515625 " fill-opacity="0.18" fill-rule="nonzero"/><path fill="#625e56" d="M 373.640625 372.109375 C 373.71875 372.03125 373.875 371.875 374.03125 371.796875 C 373.875 371.875 373.71875 372.03125 373.640625 372.109375 Z M 373.640625 372.109375 " fill-opacity="0.18" fill-rule="nonzero"/><path fill="#625e56" d="M 242.3125 375.859375 C 242.46875 375.9375 242.625 376.09375 242.78125 376.171875 C 242.625 376.09375 242.46875 375.9375 242.3125 375.859375 Z M 242.3125 375.859375 " fill-opacity="0.18" fill-rule="nonzero"/><path fill="#625e56" d="M 514.734375 381.328125 C 514.734375 381.484375 514.890625 381.71875 514.890625 381.875 C 514.890625 381.71875 514.734375 381.484375 514.734375 381.328125 Z M 514.734375 381.328125 " fill-opacity="0.18" fill-rule="nonzero"/><path fill="#625e56" d="M 282.9375 382.8125 C 283.328125 383.046875 284.109375 383.359375 284.5 383.59375 C 284.1875 383.59375 283.40625 383.515625 283.015625 383.515625 Z M 282.9375 382.8125 " fill-opacity="0.18" fill-rule="nonzero"/><path fill="#625e56" d="M 286.921875 383.75 C 287.390625 383.90625 288.171875 384.21875 288.5625 384.375 C 288.25 384.375 287.46875 384.453125 287.078125 384.453125 Z M 286.921875 383.75 " fill-opacity="0.18" fill-rule="nonzero"/><path fill="#625e56" d="M 415.984375 384.21875 C 416.0625 384.140625 416.21875 383.984375 416.296875 383.828125 C 416.21875 383.984375 416.0625 384.140625 415.984375 384.21875 Z M 415.984375 384.21875 " fill-opacity="0.18" fill-rule="nonzero"/><path fill="#625e56" d="M 291.84375 384.609375 C 292.3125 384.6875 293.09375 384.921875 293.5625 385.078125 L 292.859375 385.546875 L 292.078125 385.234375 Z M 291.84375 384.609375 " fill-opacity="0.18" fill-rule="nonzero"/><path fill="#625e56" d="M 425.828125 389.0625 C 425.90625 388.984375 426.0625 388.828125 426.140625 388.75 C 426.0625 388.828125 425.90625 388.984375 425.828125 389.0625 Z M 425.828125 389.0625 " fill-opacity="0.18" fill-rule="nonzero"/><path fill="#625e56" d="M 280.4375 393.515625 L 281.0625 393.125 L 281.921875 393.359375 L 282.078125 394.0625 C 281.6875 393.90625 280.828125 393.671875 280.4375 393.515625 Z M 280.4375 393.515625 " fill-opacity="0.18" fill-rule="nonzero"/><path fill="#625e56" d="M 400.515625 399.53125 C 400.59375 399.453125 400.75 399.296875 400.828125 399.21875 C 400.75 399.296875 400.59375 399.453125 400.515625 399.53125 Z M 400.515625 399.53125 " fill-opacity="0.18" fill-rule="nonzero"/><path fill="#625e56" d="M 395.59375 403.59375 C 395.671875 403.515625 395.90625 403.359375 395.984375 403.28125 C 395.90625 403.359375 395.671875 403.515625 395.59375 403.59375 Z M 395.59375 403.59375 " fill-opacity="0.18" fill-rule="nonzero"/><path fill="#625e56" d="M 404.578125 410.078125 C 404.65625 410 404.8125 409.84375 404.890625 409.765625 C 404.8125 409.84375 404.65625 410 404.578125 410.078125 Z M 404.578125 410.078125 " fill-opacity="0.18" fill-rule="nonzero"/><path fill="#625e56" d="M 52.3125 413.671875 C 52.46875 413.203125 52.78125 412.265625 52.9375 411.796875 C 52.78125 412.265625 52.46875 413.203125 52.3125 413.671875 Z M 52.3125 413.671875 " fill-opacity="0.18" fill-rule="nonzero"/><path fill="#625e56" d="M 211.453125 413.828125 C 211.53125 413.90625 211.6875 414.0625 211.765625 414.0625 C 211.6875 414.0625 211.53125 413.90625 211.453125 413.828125 Z M 211.453125 413.828125 " fill-opacity="0.18" fill-rule="nonzero"/><path fill="#625e56" d="M 273.171875 430.625 C 273.5625 430.78125 274.34375 431.09375 274.734375 431.25 C 274.34375 431.25 273.640625 431.25 273.25 431.25 Z M 273.171875 430.625 " fill-opacity="0.18" fill-rule="nonzero"/><path fill="#625e56" d="M 276.453125 431.25 C 276.84375 431.40625 277.625 431.71875 278.09375 431.953125 L 277.390625 432.265625 L 276.609375 431.953125 Z M 276.453125 431.25 " fill-opacity="0.18" fill-rule="nonzero"/><path fill="#625e56" d="M 264.34375 439.765625 C 264.421875 439.765625 264.734375 439.84375 264.890625 439.921875 C 264.734375 439.84375 264.421875 439.765625 264.34375 439.765625 Z M 264.34375 439.765625 " fill-opacity="0.18" fill-rule="nonzero"/><path fill="#625e56" d="M 273.875 441.796875 C 274.34375 441.953125 275.28125 442.34375 275.75 442.578125 C 275.28125 442.34375 274.34375 441.953125 273.875 441.796875 Z M 273.875 441.796875 " fill-opacity="0.18" fill-rule="nonzero"/><path fill="#625e56" d="M 52.234375 446.640625 C 52.390625 447.109375 52.703125 447.96875 52.9375 448.4375 C 52.703125 447.96875 52.390625 447.109375 52.234375 446.640625 Z M 52.234375 446.640625 " fill-opacity="0.18" fill-rule="nonzero"/><path fill="#625e56" d="M 264.421875 470.625 C 264.5 470.546875 264.65625 470.46875 264.734375 470.390625 C 264.65625 470.46875 264.5 470.546875 264.421875 470.625 Z M 264.421875 470.625 " fill-opacity="0.18" fill-rule="nonzero"/><path fill="#625e56" d="M 261.140625 473.125 C 261.21875 473.046875 261.375 472.890625 261.53125 472.8125 C 261.375 472.890625 261.21875 473.046875 261.140625 473.125 Z M 261.140625 473.125 " fill-opacity="0.18" fill-rule="nonzero"/><path fill="#625e56" d="M 354.1875 475.15625 C 354.1875 475.234375 354.265625 475.46875 354.34375 475.546875 C 354.265625 475.46875 354.1875 475.234375 354.1875 475.15625 Z M 354.1875 475.15625 " fill-opacity="0.18" fill-rule="nonzero"/><path fill="#625e56" d="M 355.828125 479.921875 C 355.828125 480.078125 355.90625 480.3125 355.984375 480.390625 C 355.90625 480.3125 355.828125 480.078125 355.828125 479.921875 Z M 355.828125 479.921875 " fill-opacity="0.18" fill-rule="nonzero"/><path fill="#625e56" d="M 83.484375 491.40625 C 83.5625 491.484375 83.71875 491.5625 83.796875 491.640625 C 83.71875 491.5625 83.5625 491.484375 83.484375 491.40625 Z M 83.484375 491.40625 " fill-opacity="0.18" fill-rule="nonzero"/><path fill="#625e56" d="M 369.578125 504.296875 C 369.65625 504.375 369.8125 504.53125 369.890625 504.609375 C 369.8125 504.53125 369.65625 504.375 369.578125 504.296875 Z M 369.578125 504.296875 " fill-opacity="0.18" fill-rule="nonzero"/><path fill="#625e56" d="M 188.25 506.40625 C 188.71875 506.25 189.65625 505.9375 190.125 505.78125 C 189.65625 505.9375 188.71875 506.25 188.25 506.40625 Z M 188.25 506.40625 " fill-opacity="0.18" fill-rule="nonzero"/><path fill="#625e56" d="M 120.515625 506.71875 C 120.984375 506.796875 121.921875 507.109375 122.390625 507.265625 C 121.921875 507.109375 120.984375 506.796875 120.515625 506.71875 Z M 120.515625 506.71875 " fill-opacity="0.18" fill-rule="nonzero"/><path fill="#625e56" d="M 129.5 508.28125 C 129.96875 508.4375 130.90625 508.75 131.375 508.90625 C 130.90625 508.75 129.96875 508.4375 129.5 508.28125 Z M 129.5 508.28125 " fill-opacity="0.18" fill-rule="nonzero"/><path fill="#625e56" d="M 381.765625 516.484375 C 381.84375 516.5625 382 516.640625 382.078125 516.71875 C 382 516.640625 381.84375 516.5625 381.765625 516.484375 Z M 381.765625 516.484375 " fill-opacity="0.18" fill-rule="nonzero"/><path fill="#625e56" d="M 446.0625 525.546875 C 446.140625 525.46875 446.375 525.390625 446.53125 525.390625 C 446.375 525.390625 446.140625 525.46875 446.0625 525.546875 Z M 446.0625 525.546875 " fill-opacity="0.18" fill-rule="nonzero"/><path fill="#625e56" d="M 398.09375 526.171875 C 398.171875 526.171875 398.40625 526.328125 398.484375 526.328125 C 398.40625 526.328125 398.171875 526.171875 398.09375 526.171875 Z M 398.09375 526.171875 " fill-opacity="0.18" fill-rule="nonzero"/><path fill="#625e56" d="M 438.71875 527.96875 C 438.875 527.890625 439.109375 527.890625 439.1875 527.8125 C 439.109375 527.890625 438.875 527.890625 438.71875 527.96875 Z M 438.71875 527.96875 " fill-opacity="0.18" fill-rule="nonzero"/><path fill="#9cc813" d="M 431.296875 72.734375 C 450.4375 69.84375 470.046875 69.609375 489.109375 73.515625 C 489.5 73.671875 490.28125 73.984375 490.75 74.140625 C 493.09375 74.140625 495.28125 75 497.546875 75.625 C 513.5625 80.15625 528.875 87.96875 540.671875 99.84375 C 550.203125 109.609375 557 122.109375 559.03125 135.625 C 560.515625 146.796875 560.59375 158.359375 558.25 169.53125 C 558.09375 169.921875 557.78125 170.703125 557.625 171.09375 C 557.546875 174.0625 556.296875 176.71875 555.4375 179.53125 C 550.125 194.84375 539.421875 207.890625 526.375 217.421875 C 526.296875 217.5 526.0625 217.65625 525.984375 217.734375 C 511.84375 228.125 495.359375 234.921875 478.5625 239.84375 C 472.859375 241.328125 467.234375 243.28125 461.375 243.90625 C 460.984375 244.0625 460.125 244.375 459.734375 244.53125 C 458.015625 244.6875 454.890625 246.25 454.578125 243.515625 C 444.65625 212.265625 424.265625 184.53125 397.625 165.15625 C 397.546875 165.078125 397.3125 165 397.234375 164.921875 C 380.4375 152.8125 361.140625 144.0625 340.828125 139.375 C 340.4375 139.21875 339.65625 138.90625 339.1875 138.75 C 332.46875 138.046875 325.75 136.328125 318.875 136.015625 C 319.34375 135.078125 320.046875 134.296875 320.75 133.59375 C 341.453125 111.328125 367.15625 93.75 395.515625 82.5 C 403.953125 79.296875 412.546875 76.328125 421.453125 74.921875 C 421.84375 74.765625 422.703125 74.453125 423.09375 74.296875 C 425.28125 73.75 427.46875 73.28125 429.65625 73.359375 C 430.125 73.203125 430.90625 72.890625 431.296875 72.734375 Z M 431.296875 72.734375 " fill-opacity="1" fill-rule="nonzero"/><path fill="#9cc813" d="M 310.125 146.40625 C 317.9375 146.25 325.671875 147.578125 333.40625 148.75 C 333.796875 148.90625 334.578125 149.21875 334.96875 149.375 C 336.6875 149.296875 338.328125 149.84375 339.96875 150.234375 C 358.796875 154.765625 376.765625 163.046875 392.3125 174.609375 C 392.390625 174.6875 392.625 174.84375 392.703125 174.921875 C 416.453125 192.34375 434.5 217.1875 443.796875 245 C 444.109375 245.78125 444.265625 246.640625 444.109375 247.5 C 431.21875 248.90625 418.25 250.546875 405.203125 250.703125 C 404.34375 250 404.109375 248.828125 403.5625 247.8125 C 399.8125 239.0625 394.578125 230.9375 388.640625 223.4375 C 388.5625 223.359375 388.40625 223.125 388.328125 223.046875 C 372.625 204.21875 350.4375 190.703125 326.21875 186.171875 C 325.75 186.015625 324.96875 185.78125 324.578125 185.625 C 318.015625 185 311.453125 183.984375 304.890625 184.140625 C 300.4375 184.375 295.984375 184.765625 291.609375 185 C 291.609375 182.34375 292.546875 179.84375 293.328125 177.34375 C 297 166.09375 303.09375 155.859375 310.125 146.40625 Z M 310.125 146.40625 " fill-opacity="1" fill-rule="nonzero"/><path fill="#9cc813" d="M 294.34375 195.546875 C 321.296875 192.265625 349.421875 200.9375 369.5 219.0625 C 369.578125 219.140625 369.8125 219.296875 369.890625 219.375 C 372.390625 221.5625 374.734375 223.828125 376.921875 226.328125 C 377 226.40625 377.15625 226.5625 377.234375 226.640625 C 383.09375 233.046875 388.015625 240.390625 391.921875 248.125 C 392.390625 249.0625 392.859375 250 393.015625 251.09375 C 389.1875 251.640625 385.359375 251.328125 381.53125 251.171875 C 369.8125 251.09375 358.015625 249.921875 346.53125 247.734375 C 346.0625 247.578125 345.28125 247.265625 344.890625 247.109375 C 333.015625 245.15625 321.453125 240.78125 311.453125 234.140625 C 299.03125 225.703125 289.96875 211.328125 290.28125 196.171875 C 290.90625 196.171875 292.078125 196.09375 292.625 196.015625 C 293.09375 195.9375 293.875 195.625 294.34375 195.546875 Z M 294.34375 195.546875 " fill-opacity="1" fill-rule="nonzero"/><path fill="#fabe00" d="M 411.609375 273.828125 C 415.828125 273.984375 420.046875 274.609375 424.109375 275.703125 C 424.1875 275.703125 424.5 275.78125 424.578125 275.859375 C 434.03125 278.359375 442.9375 282.8125 450.828125 288.4375 C 451.609375 304.296875 448.796875 320.234375 443.875 335.3125 C 443.875 335.390625 443.796875 335.625 443.71875 335.78125 C 437.859375 353.359375 428.40625 369.765625 416.296875 383.828125 C 416.21875 383.984375 416.0625 384.140625 415.984375 384.21875 C 411.296875 389.609375 406.296875 394.6875 400.828125 399.21875 C 400.75 399.296875 400.59375 399.453125 400.515625 399.53125 C 399.03125 400.859375 397.546875 402.109375 395.984375 403.28125 C 395.90625 403.359375 395.671875 403.515625 395.59375 403.59375 C 380.828125 415.078125 363.796875 423.828125 345.75 428.90625 C 344.578125 417.03125 344.8125 405.15625 344.890625 393.359375 C 344.96875 391.875 344.890625 390.3125 345.28125 388.90625 C 355.4375 384.609375 365.125 379.140625 373.640625 372.109375 C 373.71875 372.03125 373.875 371.875 374.03125 371.796875 C 381.21875 365.703125 387.78125 358.828125 393.25 351.171875 C 393.328125 351.015625 393.484375 350.859375 393.5625 350.78125 C 407.703125 330.625 414.65625 305.46875 412.15625 281.015625 C 411.921875 278.59375 411.296875 276.171875 411.609375 273.828125 Z M 411.609375 273.828125 " fill-opacity="1" fill-rule="nonzero"/><path fill="#fabe00" d="M 396.84375 275.703125 C 397.9375 275.3125 399.109375 275.078125 400.203125 275 C 401.140625 275.9375 400.828125 277.421875 401.140625 278.59375 C 404.5 303.125 397.3125 328.75 382.078125 348.28125 C 382 348.359375 381.84375 348.59375 381.765625 348.671875 C 378.171875 353.203125 374.265625 357.5 369.890625 361.25 C 369.8125 361.328125 369.578125 361.484375 369.5 361.5625 C 362.546875 367.65625 354.890625 373.046875 346.21875 376.484375 C 346.765625 364.0625 349.03125 351.640625 351.6875 339.375 C 355.359375 323.90625 360.28125 308.28125 369.65625 295.078125 C 372.15625 291.5625 375.203125 288.4375 378.484375 285.703125 C 378.5625 285.625 378.796875 285.46875 378.875 285.390625 C 383.953125 281.015625 389.890625 277.734375 396.296875 275.859375 C 396.453125 275.78125 396.6875 275.703125 396.84375 275.703125 Z M 396.84375 275.703125 " fill-opacity="1" fill-rule="nonzero"/><path fill="#fabe00" d="M 461.6875 297.1875 C 463.328125 297.734375 464.421875 299.0625 465.671875 300.234375 C 468.953125 303.59375 472.46875 306.796875 475.515625 310.390625 C 475.59375 310.46875 475.75 310.625 475.828125 310.703125 C 493.640625 331.09375 506.921875 355.46875 514.734375 381.328125 C 514.734375 381.484375 514.890625 381.71875 514.890625 381.875 C 522.546875 408.203125 523.328125 437.421875 511.921875 462.8125 C 504.96875 478.90625 493.171875 492.421875 480.125 503.984375 C 470.125 512.8125 458.953125 520.390625 446.53125 525.390625 C 446.375 525.390625 446.140625 525.46875 446.0625 525.546875 C 443.796875 526.40625 441.53125 527.109375 439.1875 527.8125 C 439.109375 527.890625 438.875 527.890625 438.71875 527.96875 C 434.8125 529.296875 430.515625 529.296875 426.609375 530.703125 L 414.65625 530.703125 C 409.265625 529.21875 403.640625 528.59375 398.484375 526.328125 C 398.40625 526.328125 398.171875 526.171875 398.09375 526.171875 C 392.3125 523.75 386.921875 520.625 382.078125 516.71875 C 382 516.640625 381.84375 516.5625 381.765625 516.484375 C 377.390625 512.890625 373.40625 508.90625 369.890625 504.609375 C 369.8125 504.53125 369.65625 504.375 369.578125 504.296875 C 363.640625 497.1875 359.109375 489.0625 355.984375 480.390625 C 355.90625 480.3125 355.828125 480.078125 355.828125 479.921875 C 355.28125 478.515625 354.8125 477.03125 354.34375 475.546875 C 354.265625 475.46875 354.1875 475.234375 354.1875 475.15625 C 350.515625 463.75 348.171875 452.03125 346.921875 440.234375 C 347.625 439.140625 349.03125 439.21875 350.046875 438.828125 C 369.96875 432.96875 388.5625 423.125 404.578125 410.078125 C 404.65625 410 404.8125 409.84375 404.890625 409.765625 C 412.546875 403.59375 419.578125 396.640625 425.828125 389.0625 C 425.90625 388.984375 426.0625 388.828125 426.140625 388.75 C 447.625 363.125 460.359375 330.46875 461.6875 297.1875 Z M 461.6875 297.1875 " fill-opacity="1" fill-rule="nonzero"/><path fill="#e61874" d="M 167.390625 333.125 C 180.28125 331.796875 193.171875 330.15625 206.140625 329.84375 C 206.921875 331.015625 207.390625 332.265625 207.9375 333.515625 C 215.4375 350.3125 227.546875 364.921875 242.3125 375.859375 C 242.46875 375.9375 242.625 376.09375 242.78125 376.171875 C 254.03125 384.296875 266.921875 390.234375 280.4375 393.515625 C 280.828125 393.671875 281.6875 393.90625 282.078125 394.0625 C 291.453125 395.625 301.0625 397.1875 310.59375 396.25 C 313.640625 396.171875 316.6875 395.625 319.734375 395.703125 C 317.3125 409.0625 310.28125 421.171875 302.625 432.265625 C 301.84375 433.125 301.296875 434.609375 299.890625 434.296875 C 292.546875 434.0625 285.28125 433.125 278.09375 431.953125 C 277.625 431.71875 276.84375 431.40625 276.453125 431.25 C 276.0625 431.25 275.203125 431.25 274.734375 431.25 C 274.34375 431.09375 273.5625 430.78125 273.171875 430.625 C 263.171875 428.90625 253.5625 425.15625 244.34375 421.015625 C 207.9375 404.453125 179.1875 372.265625 167.078125 334.375 C 167.15625 334.0625 167.3125 333.4375 167.390625 333.125 Z M 167.390625 333.125 " fill-opacity="1" fill-rule="nonzero"/><path fill="#e61874" d="M 218.40625 329.53125 C 220.28125 329.21875 222.234375 329.21875 224.265625 329.296875 C 234.34375 329.609375 244.421875 329.6875 254.421875 331.328125 C 255.046875 331.953125 255.828125 332.1875 256.6875 331.953125 C 258.09375 331.71875 259.5 331.875 260.90625 332.109375 C 261.296875 332.265625 262.078125 332.578125 262.46875 332.734375 C 263.09375 332.8125 264.34375 332.890625 264.96875 332.890625 C 265.359375 333.046875 266.140625 333.4375 266.53125 333.59375 C 268.484375 333.515625 270.28125 334.140625 272.078125 334.609375 C 284.03125 337.734375 295.828125 342.578125 305.125 350.78125 C 305.203125 350.859375 305.4375 351.015625 305.515625 351.09375 C 314.890625 359.453125 321.0625 371.71875 321.0625 384.375 C 312 386.09375 302.625 385.9375 293.5625 385.078125 C 293.09375 384.921875 292.3125 384.6875 291.84375 384.609375 C 290.75 384.6875 289.65625 384.609375 288.5625 384.375 C 288.171875 384.21875 287.390625 383.90625 286.921875 383.75 C 286.375 383.75 285.125 383.59375 284.5 383.59375 C 284.109375 383.359375 283.328125 383.046875 282.9375 382.8125 C 271.453125 380.703125 260.59375 375.3125 250.90625 368.828125 C 250.828125 368.75 250.59375 368.59375 250.515625 368.515625 C 248.09375 366.875 245.828125 365.078125 243.5625 363.203125 C 243.484375 363.125 243.25 362.96875 243.171875 362.890625 C 232.703125 353.90625 224.03125 342.8125 218.328125 330.3125 Z M 218.40625 329.53125 " fill-opacity="1" fill-rule="nonzero"/><path fill="#e61874" d="M 151.765625 335.9375 C 153.09375 335.78125 154.421875 335.625 155.828125 335.546875 C 156.921875 337.1875 157.3125 339.21875 157.9375 341.015625 C 167.9375 369.84375 186.921875 395.46875 211.453125 413.828125 C 211.53125 413.90625 211.6875 414.0625 211.765625 414.0625 C 227.46875 425.78125 245.359375 434.609375 264.34375 439.765625 C 264.421875 439.765625 264.734375 439.84375 264.890625 439.921875 C 266.53125 440.3125 268.171875 440.703125 269.8125 441.015625 C 270.28125 441.25 271.140625 441.640625 271.609375 441.796875 C 272.15625 441.796875 273.328125 441.796875 273.875 441.796875 C 274.34375 441.953125 275.28125 442.34375 275.75 442.578125 C 276.296875 442.578125 277.390625 442.65625 277.9375 442.65625 C 278.40625 442.8125 279.34375 443.125 279.8125 443.28125 C 282.703125 443.515625 285.671875 443.984375 288.640625 444.375 C 289.5 445.078125 290.59375 445.46875 291.765625 445.15625 C 291.453125 445.859375 291.0625 446.484375 290.515625 447.03125 C 282.546875 455.390625 274.03125 463.4375 264.734375 470.390625 C 264.65625 470.46875 264.5 470.546875 264.421875 470.625 C 263.40625 471.40625 262.46875 472.109375 261.53125 472.8125 C 261.375 472.890625 261.21875 473.046875 261.140625 473.125 C 239.890625 488.359375 215.90625 500.390625 190.125 505.78125 C 189.65625 505.9375 188.71875 506.25 188.25 506.40625 C 185.828125 506.71875 183.484375 507.109375 181.140625 507.421875 C 180.046875 506.875 179.1875 507.109375 178.5625 508.125 C 165.90625 509.921875 153.015625 510.546875 140.28125 509.609375 C 139.1875 508.515625 137.546875 508.515625 136.140625 509.140625 C 134.578125 509.0625 132.9375 508.90625 131.375 508.90625 C 130.90625 508.75 129.96875 508.4375 129.5 508.28125 C 127.15625 508.046875 124.8125 507.65625 122.390625 507.265625 C 121.921875 507.109375 120.984375 506.796875 120.515625 506.71875 C 107.546875 503.984375 94.96875 498.90625 83.796875 491.640625 C 83.71875 491.5625 83.5625 491.484375 83.484375 491.40625 C 68.484375 481.40625 56.453125 466.25 52.9375 448.4375 C 52.703125 447.96875 52.390625 447.109375 52.234375 446.640625 C 52.15625 445.3125 52.15625 443.984375 52.078125 442.65625 C 52.625 441.328125 52.625 439.6875 51.53125 438.59375 C 51.453125 437.5 51.375 436.328125 51.296875 435.234375 C 51.140625 431.796875 51.140625 428.359375 51.296875 424.921875 C 51.375 423.828125 51.453125 422.734375 51.53125 421.640625 C 52.625 420.546875 52.625 418.90625 52.078125 417.578125 C 52.15625 416.25 52.234375 414.921875 52.3125 413.671875 C 52.46875 413.203125 52.78125 412.265625 52.9375 411.796875 C 56.453125 392.65625 68.25 375.625 83.796875 363.984375 C 101.921875 350.390625 123.796875 342.34375 145.90625 337.5 C 146.375 337.34375 147.234375 336.953125 147.703125 336.796875 C 148.25 336.796875 149.34375 336.71875 149.890625 336.71875 C 150.359375 336.484375 151.296875 336.09375 151.765625 335.9375 Z M 151.765625 335.9375 " fill-opacity="1" fill-rule="nonzero"/></svg>