<?xml version="1.0" encoding="UTF-8" standalone="no"?> <svg xmlns:dc="http://purl.org/dc/elements/1.1/" xmlns:cc="http://creativecommons.org/ns#" xmlns:rdf="http://www.w3.org/1999/02/22-rdf-syntax-ns#" xmlns:svg="http://www.w3.org/2000/svg" xmlns="http://www.w3.org/2000/svg" xmlns:sodipodi="http://sodipodi.sourceforge.net/DTD/sodipodi-0.dtd" xmlns:inkscape="http://www.inkscape.org/namespaces/inkscape" width="3469.4893pt" height="1165.894pt" viewBox="0 0 3469.4894 1165.8941" version="1.1" id="svg322" sodipodi:docname="EZVIZ-LG.svg" inkscape:export-filename="C:\Users\Miguel\Desktop\EZVIZ-Q.png" inkscape:export-xdpi="123" inkscape:export-ydpi="123" inkscape:version="1.0.2-2 (e86c870879, 2021-01-15)"><metadata id="metadata328"></metadata><defs id="defs326"><rect x="3883.7686" y="1590.7375" width="2711.869" height="1582.2761" id="rect963"></rect><rect x="1121.1315" y="-291.91725" width="2580.7177" height="1882.6547" id="rect1224"></rect><rect x="3553.7752" y="1455.3556" width="2424.1824" height="1374.9726" id="rect1218"></rect></defs><path fill="#727171" opacity="1" d="m 2145.1496,334.34213 c 31.1259,0.30034 62.2655,-0.0683 93.3913,0.17747 24.0817,43.27592 47.3169,87.16616 71.1937,130.60589 26.5389,49.37823 53.501,98.53803 80.1355,147.86165 2.5119,3.24911 3.4949,10.85311 8.8873,9.31047 11.9725,-20.73695 22.9622,-42.04726 34.5388,-63.02994 39.0166,-71.95815 78.1151,-143.889 117.0907,-215.88811 1.7474,-2.86686 2.9897,-6.18422 5.5836,-8.46406 10.8394,-0.72354 21.7608,-0.0819 32.6412,-0.28668 19.7404,0.16382 39.4944,-0.34129 59.2211,0.24573 -4.2184,10.62103 -10.0613,20.46391 -15.5902,30.42966 -64.2996,115.02929 -128.5036,230.09953 -192.8577,345.10152 -4.1365,8.45041 -13.365,13.95205 -22.7301,13.9657 -13.2285,0.34129 -26.5116,0.35494 -39.7401,0.0136 -9.8429,-0.12286 -18.5664,-6.63473 -22.9759,-15.16705 -65.7329,-117.59581 -131.3567,-235.24623 -197.1716,-352.78743 -3.6723,-7.46749 -8.778,-14.23874 -11.6176,-22.08847 z" id="path217" style="fill:#808080;stroke-width:1.36517"></path><path fill="#727171" opacity="1" d="m 2677.8256,334.36944 c 27.0304,0.12286 54.0608,0.15016 81.1048,0 1.0102,3.83613 0.4778,7.86338 0.6007,11.79507 -0.027,119.22037 0,238.45438 -0.014,357.67475 -0.3686,6.68934 0.7645,13.5698 -0.6006,20.13627 -7.0307,1.37882 -14.3616,0.23208 -21.5015,0.60068 -17.7609,0.0273 -35.5217,-0.041 -53.269,0.041 -2.1569,-0.0819 -4.3685,0.16382 -6.3616,-0.60067 0.095,-129.88235 0.027,-259.7647 0.041,-389.64705 z" id="path219" style="fill:#808080;stroke-width:1.36517"></path><path fill="#727171" opacity="1" d="m 3315.4013,334.43769 c 4.1365,-0.12286 8.3412,-0.21842 12.5186,0.13652 1.4881,0.83276 1.4471,2.88051 2.2116,4.30029 3.5904,10.52547 7.2627,21.02363 10.8668,31.5491 1.9795,0.38224 2.0068,-2.55287 2.9078,-3.75422 3.959,-10.62103 7.1808,-21.52875 11.2627,-32.09517 4.7507,-0.34129 9.5288,-0.0546 14.3206,-0.25938 v 51.80823 c -3.6723,0.10921 -7.3446,0.31399 -10.9487,-0.17747 -1.3105,-11.1671 1.4471,-22.32054 0.3413,-33.47399 l -1.4471,0.30034 c -4.546,10.97597 -7.29,22.7847 -12.6687,33.37842 -1.7884,0.17748 -3.5222,0.16382 -5.2287,-0.0273 -1.4061,-1.41978 -1.8975,-3.38562 -2.5392,-5.16035 -2.744,-8.819 -7.5767,-16.87351 -9.2831,-26.02015 -0.7372,-0.12287 -2.2116,-0.38225 -2.9625,-0.50511 -0.027,10.51181 0.8601,21.05093 0,31.54909 -3.0443,-0.0136 -6.7985,1.33787 -9.3241,-0.55972 -0.1501,-16.99637 -0.082,-34.0064 -0.027,-50.98913 z" id="path221" style="fill:#808080;stroke-width:1.36517"></path><path fill="#727171" opacity="1" d="m 1290.6482,339.96664 c 14.9623,-4.23203 30.6071,-5.35147 46.1018,-5.33782 66.8934,-0.0137 133.7868,0 200.6801,-0.0137 39.2623,0.17747 78.5383,-0.32764 117.787,0.25938 0.3959,17.06463 0.3959,34.18388 0,51.26216 -44.2589,0.55972 -88.545,0.0819 -132.8039,0.23208 -50.5113,0.0136 -101.0226,0 -151.5339,0 -13.72,-0.60067 -27.6311,3.26276 -39.2623,10.56642 -16.4367,10.47086 -25.6652,29.86994 -26.9348,48.91407 -0.096,54.59318 0,109.18636 -0.041,163.77954 -0.7508,26.11572 16.6278,52.44987 42.1428,59.80814 9.8839,3.80882 20.5868,2.51191 30.9211,2.74399 92.4767,0.12287 184.967,-0.24573 277.4437,0.17747 0.5188,17.31037 0.5051,34.72995 0,52.04031 -94.2923,0.42321 -188.5983,0.0546 -282.9043,0.17748 -15.9316,-0.30034 -31.9177,0.62797 -47.8083,-0.51877 -27.8222,-0.72354 -56.0403,-9.26951 -77.8284,-26.98943 -5.2696,-5.21495 -10.4572,-10.51181 -15.7268,-15.69946 -17.2694,-20.70964 -26.3614,-47.53525 -27.3307,-74.30625 -0.2048,-2.77129 -0.8874,-5.50164 -0.8737,-8.28658 0.055,-37.32377 0.014,-74.66119 0.027,-111.99862 0.096,-15.98615 -0.628,-32.06786 1.7884,-47.91749 3.1945,-22.17038 12.1636,-43.5626 26.1293,-61.09139 15.2763,-18.63459 36.8323,-31.64466 60.0266,-37.80158 z" id="path223" style="fill:#808080;stroke-width:1.36517"></path><path fill="#727171" opacity="1" d="m 1699.5169,334.87455 c 71.5486,-0.58702 143.1382,-0.0819 214.7004,-0.25938 62.7979,-0.0137 125.5821,0.041 188.3799,-0.0273 6.3344,-0.24573 12.9692,0.84641 18.4298,4.21838 10.2525,7.9999 10.9487,23.41268 5.7611,34.49787 -2.3345,5.82928 -7.7815,9.36507 -11.8634,13.85648 -9.7473,10.29339 -20.1362,19.90419 -30.102,29.97915 -7.4129,7.61765 -15.6585,14.33429 -23.1123,21.91099 -9.9658,9.6108 -19.3991,19.79498 -29.9246,28.79145 -10.6483,10.27974 -21.0782,20.7779 -31.6583,31.11225 -10.0476,8.57327 -19.1397,18.17042 -28.5867,27.39898 -7.6313,7.86338 -16.1499,14.77114 -23.7949,22.60722 -10.2388,9.78828 -19.8359,20.27279 -30.6208,29.47404 -11.1125,10.71659 -22.0065,21.66526 -33.0371,32.46376 -11.0442,9.40603 -20.9281,20.05436 -31.3716,30.10202 -8.1774,8.27293 -17.2012,15.6312 -25.242,24.04066 -1.884,1.41977 -1.57,3.93169 -1.0922,5.93849 1.57,1.46073 3.8908,1.05118 5.8839,1.215 82.3744,-0.041 164.7488,0 247.1369,-0.0136 14.621,0.13652 29.2693,-0.28669 43.8902,0.19112 0.4642,17.31037 0.4778,34.70265 0,52.01301 -134.756,0.47781 -269.5256,0.0273 -404.2817,0.21843 -6.7303,0.0683 -14.1841,-0.68259 -19.1943,-5.67911 -4.8464,-4.0136 -6.4846,-10.47086 -7.3583,-16.40935 -0.7372,-5.69277 1.6655,-11.03058 3.3037,-16.32745 2.0887,-6.75759 8.1228,-11.07153 12.819,-15.9725 18.3752,-18.48441 37.078,-36.64118 55.4669,-55.11194 19.1807,-17.1875 36.6003,-36.25894 55.699,-53.5147 18.0612,-17.91104 36.5047,-35.38522 54.8389,-53.00958 8.6825,-9.09204 18.3479,-17.11924 27.1942,-26.04746 7.9453,-7.52209 15.4401,-15.53564 23.7813,-22.64818 17.324,-17.26941 35.5081,-33.62416 52.8458,-50.89357 6.2797,-5.70641 12.9418,-11.13979 18.2386,-17.81548 -0.1365,-1.85663 -1.3924,-3.39927 -2.5255,-4.75079 -83.5075,-0.12287 -167.0287,-0.0137 -250.5362,-0.041 -14.7029,-0.17747 -29.4058,0.32764 -44.0814,-0.24573 -0.3959,-17.06463 -0.4095,-34.19753 0.014,-51.26216 z" id="path225" style="fill:#808080;stroke-width:1.36517"></path><path fill="#727171" opacity="1" d="m 2817.8785,334.92916 c 32.7504,-0.70989 65.5828,-0.0956 98.3742,-0.31399 100.5721,0 201.1306,0.0137 301.7027,0 6.6484,-0.13652 13.6381,-0.21843 19.7268,2.88051 6.034,3.60405 8.9145,10.47086 10.6346,16.98272 1.5017,10.02036 -1.9795,20.70964 -9.133,27.90409 -7.7678,7.72687 -15.5902,15.38548 -23.3717,23.08504 -13.5971,11.83603 -25.9246,25.02358 -38.9074,37.51489 -11.7541,10.06131 -22.2795,21.44684 -33.433,32.13612 -5.0784,5.41973 -11.0852,9.80193 -16.1773,15.19436 -11.2353,10.60737 -21.6652,22.07481 -33.392,32.13612 -10.6347,10.29338 -21.0919,20.76424 -31.672,31.11224 -11.9589,10.30704 -22.7301,21.89734 -34.1293,32.80505 -6.0067,6.29344 -12.9281,11.60396 -18.9349,17.88374 -10.4708,10.02035 -20.3001,20.72329 -31.317,30.14297 -10.8531,10.56642 -21.6653,21.18745 -32.3819,31.89039 -2.8805,2.55287 0.082,6.8122 3.5631,5.87024 90.5518,0.0546 181.1036,0.0136 271.6554,0.0273 7.0989,0.34129 14.3752,-0.75084 21.4059,0.57337 -0.068,17.07829 -0.055,34.17023 -0.014,51.26217 -8.3821,1.32421 -17.0237,0.19112 -25.4877,0.55972 -126.9609,0 -253.9355,0.0273 -380.8963,-0.0137 -7.4266,-0.0683 -15.9043,-2.0068 -19.9725,-8.83265 -5.5289,-7.27636 -5.3924,-17.21481 -3.1262,-25.66521 3.4812,-11.23536 13.2694,-18.3479 21.0646,-26.48432 8.5459,-8.28658 16.5322,-17.17384 25.6242,-24.90071 16.4367,-16.32744 33.1054,-32.42281 49.4738,-48.83216 10.4299,-9.09204 19.9451,-19.167 29.9928,-28.69589 10.7302,-11.12614 22.4844,-21.1738 33.3648,-32.16343 15.9315,-15.94519 32.7777,-30.90746 48.5864,-46.98917 9.6791,-8.47771 18.7438,-17.65166 27.9724,-26.63449 6.9077,-7.22175 14.7575,-13.40597 21.7335,-20.57312 14.3616,-14.42986 29.8972,-27.67201 43.9312,-42.45681 1.802,-2.744 -1.1741,-6.47091 -4.2321,-5.76102 -97.2684,-0.0137 -194.5504,-0.12287 -291.8189,0.0683 -0.9692,-3.39928 -0.5597,-6.97603 -0.6143,-10.45721 0.1638,-13.74727 -0.2457,-27.50819 0.2048,-41.25546 z" id="path227" style="fill:#808080;stroke-width:1.36517"></path><path fill="#727171" opacity="1" d="m 3269.5725,334.90185 c 12.9555,-0.51876 25.9792,-0.36859 38.962,-0.0819 0.314,2.43001 0.4232,4.94192 -0.082,7.35827 -4.587,0.3413 -9.1466,-0.0136 -13.6927,0.24573 -0.3822,14.49812 0.2594,29.03719 -0.3003,43.5353 -3.3174,0.50511 -6.6757,0.4232 -9.9521,0.041 -0.628,-14.47082 -0.2184,-29.00988 -0.1502,-43.508 -4.9282,-0.40955 -9.8565,0.10922 -14.7301,-0.34129 -0.5052,-2.4027 -0.4233,-4.86001 -0.055,-7.24906 z" id="path229" style="fill:#808080;stroke-width:1.36517"></path><path fill="#727171" opacity="1" d="m 1341.1595,502.24449 c 103.0022,0.0956 206.0179,-0.041 309.0201,0.0683 -0.2457,16.49126 -0.2457,32.98252 0,49.47379 -103.0158,0.12286 -206.0316,-0.041 -309.0337,0.0819 -1.3242,-8.38215 -0.2048,-17.02368 -0.5598,-25.50139 0.3686,-8.02721 -0.7781,-16.21823 0.5734,-24.12257 z" id="path231" style="fill:#808080;stroke-width:1.36517"></path><g id="g503" transform="matrix(1.6233514,0,0,1.6233514,98.924531,100)"><g id="#00a0e9ff"><path fill="#00a0e9" opacity="1" d="m 164.65,0 h 14.73 c 4.47,1.64 9.31,1.85 13.8,3.42 0.17,0.05 0.5,0.16 0.67,0.21 0.55,0.19 1.66,0.57 2.21,0.75 0.16,0.06 0.48,0.18 0.64,0.24 8.63,3.07 16.53,7.93 23.6,13.71 0.1,0.09 0.31,0.26 0.41,0.34 4.21,3.51 8.09,7.42 11.63,11.61 0.09,0.1 0.27,0.31 0.35,0.42 6.12,7.09 11.33,14.98 15.11,23.57 7.33,16.42 11.08,34.15 13.79,51.84 0.3,2.17 0.62,4.4 0.28,6.59 -25.17,6.99 -48.86,19.19 -69.18,35.61 -0.1,0.08 -0.3,0.25 -0.41,0.33 -10.51,8.5 -20.12,18.13 -28.61,28.65 -0.08,0.11 -0.25,0.32 -0.34,0.43 -13.75,17.17 -24.63,36.65 -31.75,57.48 -0.05,0.16 -0.16,0.48 -0.21,0.64 -0.19,0.55 -0.56,1.67 -0.75,2.23 -0.07,0.22 -0.22,0.67 -0.29,0.9 -0.17,0.53 -0.52,1.61 -0.69,2.14 -0.05,0.17 -0.16,0.51 -0.21,0.67 -4.56,15.26 -7.52,31.06 -7.96,47.01 -3.66,-0.92 -5.7,-5.01 -8.71,-7.18 -0.09,-0.09 -0.28,-0.28 -0.37,-0.37 -3.27,-3.49 -6.69,-6.84 -9.74,-10.53 -0.08,-0.1 -0.25,-0.3 -0.34,-0.4 -1.57,-1.85 -3.13,-3.7 -4.64,-5.61 -0.08,-0.1 -0.24,-0.3 -0.32,-0.41 -18.2,-23.39 -32.2,-50.11 -40.8,-78.49 -0.04,-0.13 -0.12,-0.41 -0.16,-0.55 -8.24,-27.94 -10.37,-58.34 -2.02,-86.51 0.04,-0.14 0.13,-0.42 0.17,-0.56 5.14,-17.1 14.11,-32.96 25.77,-46.46 0.1,-0.11 0.29,-0.33 0.39,-0.45 7.81,-8.91 16.4,-17.13 25.6,-24.6 0.1,-0.08 0.3,-0.24 0.4,-0.32 12.73,-9.91 26.87,-18.37 42.48,-22.82 0.14,-0.04 0.43,-0.12 0.57,-0.16 4.86,-1.62 10.06,-1.72 14.9,-3.37 z" id="path2"></path><path fill="#00a0e9" opacity="1" d="m 258.88,127.43 c 1.6,-0.54 3.21,-1.07 4.89,-1.3 0.8,13.17 1.55,26.39 0.96,39.6 -0.41,3.31 0.22,6.77 -0.82,9.99 -11.93,4.88 -23.16,11.45 -33.2,19.54 -0.12,0.09 -0.35,0.28 -0.47,0.37 -7.19,5.84 -13.75,12.44 -19.6,19.61 -0.1,0.12 -0.28,0.36 -0.38,0.47 -9.38,11.81 -16.83,25.15 -21.71,39.43 -0.06,0.17 -0.18,0.5 -0.24,0.66 -0.18,0.57 -0.56,1.7 -0.75,2.27 -0.06,0.18 -0.16,0.52 -0.22,0.7 -5.25,17.16 -7.01,35.37 -4.91,53.2 0.29,1.97 0.61,3.95 0.53,5.96 -6.46,-0.42 -12.97,-1.24 -19.11,-3.37 -0.15,-0.05 -0.45,-0.15 -0.6,-0.2 -10.22,-3.24 -19.88,-8.23 -28.56,-14.5 -1.46,-38.13 11.33,-76.31 33.66,-107.1 0.09,-0.12 0.27,-0.36 0.35,-0.48 0.86,-1.2 1.75,-2.38 2.66,-3.55 0.09,-0.11 0.27,-0.35 0.36,-0.46 1.18,-1.54 2.42,-3.03 3.65,-4.53 0.1,-0.12 0.28,-0.35 0.38,-0.46 6.86,-8.12 14.39,-15.69 22.53,-22.53 0.11,-0.1 0.34,-0.29 0.46,-0.38 1.49,-1.24 2.97,-2.5 4.53,-3.66 0.12,-0.09 0.35,-0.27 0.47,-0.36 1.17,-0.9 2.35,-1.79 3.54,-2.66 0.12,-0.08 0.36,-0.26 0.48,-0.35 13.6,-9.97 28.64,-17.96 44.5,-23.67 0.17,-0.06 0.5,-0.17 0.66,-0.23 0.57,-0.19 1.71,-0.58 2.28,-0.77 0.18,-0.06 0.54,-0.18 0.72,-0.24 0.57,-0.19 1.71,-0.58 2.28,-0.77 0.17,-0.06 0.51,-0.17 0.68,-0.23 z" id="path4"></path><path fill="#00a0e9" opacity="1" d="m 259.91,191.92 c 1,-0.54 2.06,-0.91 3.19,-1.12 0.04,5.09 -0.74,10.12 -1.37,15.15 -2.03,15.26 -4.72,30.48 -9.15,45.24 -0.04,0.16 -0.14,0.47 -0.18,0.63 -3.76,12.7 -8.57,25.23 -15.75,36.42 -0.08,0.13 -0.25,0.38 -0.33,0.5 -7.67,11.37 -18.57,20.92 -31.57,25.6 -0.15,0.05 -0.45,0.16 -0.59,0.21 -2.53,0.6 -5.44,2.57 -7.93,1.44 -5.15,-31.13 2.96,-64.14 22.11,-89.24 0.09,-0.12 0.27,-0.36 0.36,-0.48 1.14,-1.57 2.4,-3.05 3.65,-4.54 0.1,-0.11 0.29,-0.34 0.38,-0.46 4.12,-4.88 8.66,-9.44 13.55,-13.55 0.11,-0.1 0.34,-0.29 0.46,-0.38 7.04,-6.08 14.96,-11.07 23.17,-15.42 z" id="path6"></path></g><g id="#625e562f"><path fill="#625e56" opacity="0.18" d="m 149.18,3.53 c 0.14,-0.04 0.43,-0.12 0.57,-0.16 -0.14,0.04 -0.43,0.12 -0.57,0.16 z" id="path9"></path><path fill="#625e56" opacity="0.18" d="m 193.18,3.42 c 0.17,0.05 0.5,0.16 0.67,0.21 -0.17,-0.05 -0.5,-0.16 -0.67,-0.21 z" id="path11"></path><path fill="#625e56" opacity="0.18" d="m 196.06,4.38 c 0.16,0.06 0.48,0.18 0.64,0.24 -0.16,-0.06 -0.48,-0.18 -0.64,-0.24 z" id="path13"></path><path fill="#625e56" opacity="0.18" d="m 220.3,18.33 c 0.1,0.09 0.31,0.26 0.41,0.34 -0.1,-0.08 -0.31,-0.25 -0.41,-0.34 z" id="path15"></path><path fill="#625e56" opacity="0.18" d="m 106.3,26.67 c 0.1,-0.08 0.3,-0.24 0.4,-0.32 -0.1,0.08 -0.3,0.24 -0.4,0.32 z" id="path17"></path><path fill="#625e56" opacity="0.18" d="m 465.25,28.2 1.01,-0.41 0.81,0.49 c -0.5,0.19 -1.49,0.58 -1.99,0.78 z" id="path19"></path><path fill="#625e56" opacity="0.18" d="m 537.95,29.22 0.8,-0.5 1.03,0.39 0.19,0.86 c -0.5,-0.19 -1.52,-0.56 -2.02,-0.75 z" id="path21"></path><path fill="#625e56" opacity="0.18" d="m 232.34,30.28 c 0.09,0.1 0.27,0.31 0.35,0.42 -0.08,-0.11 -0.26,-0.32 -0.35,-0.42 z" id="path23"></path><path fill="#625e56" opacity="0.18" d="m 455.19,30.05 1.04,-0.38 0.79,0.52 c -0.5,0.18 -1.52,0.53 -2.03,0.71 z" id="path25"></path><path fill="#625e56" opacity="0.18" d="m 80.31,51.72 c 0.1,-0.11 0.29,-0.33 0.39,-0.45 -0.1,0.12 -0.29,0.34 -0.39,0.45 z" id="path27"></path><path fill="#625e56" opacity="0.18" d="m 54.37,98.74 c 0.04,-0.14 0.13,-0.42 0.17,-0.56 -0.04,0.14 -0.13,0.42 -0.17,0.56 z" id="path29"></path><path fill="#625e56" opacity="0.18" d="m 354.09,109.95 c 0.5,0.2 1.5,0.59 2,0.78 l -0.81,0.49 -1.02,-0.41 z" id="path31"></path><path fill="#625e56" opacity="0.18" d="m 346.92,122.32 0.81,-0.48 1.01,0.4 0.16,0.86 c -0.49,-0.19 -1.48,-0.58 -1.98,-0.78 z" id="path33"></path><path fill="#625e56" opacity="0.18" d="m 258.2,127.66 c 0.17,-0.06 0.51,-0.17 0.68,-0.23 -0.17,0.06 -0.51,0.17 -0.68,0.23 z" id="path35"></path><path fill="#625e56" opacity="0.18" d="m 255.2,128.67 c 0.18,-0.06 0.54,-0.18 0.72,-0.24 -0.18,0.06 -0.54,0.18 -0.72,0.24 z" id="path37"></path><path fill="#625e56" opacity="0.18" d="m 252.26,129.67 c 0.17,-0.06 0.5,-0.17 0.66,-0.23 -0.16,0.06 -0.49,0.17 -0.66,0.23 z" id="path39"></path><path fill="#625e56" opacity="0.18" d="m 425.28,142.29 c 0.12,0.09 0.37,0.27 0.49,0.36 -0.12,-0.09 -0.37,-0.27 -0.49,-0.36 z" id="path41"></path><path fill="#625e56" opacity="0.18" d="m 192.28,148.64 c 0.11,-0.08 0.31,-0.25 0.41,-0.33 -0.1,0.08 -0.3,0.25 -0.41,0.33 z" id="path43"></path><path fill="#625e56" opacity="0.18" d="m 622.06,149.99 c 0.19,-0.5 0.57,-1.51 0.75,-2.01 l 0.5,0.8 -0.4,1.02 z" id="path45"></path><path fill="#625e56" opacity="0.18" d="m 207.28,153.69 c 0.12,-0.08 0.36,-0.26 0.48,-0.35 -0.12,0.09 -0.36,0.27 -0.48,0.35 z" id="path47"></path><path fill="#625e56" opacity="0.18" d="m 419.25,154.34 c 0.12,0.09 0.36,0.27 0.48,0.36 -0.12,-0.09 -0.36,-0.27 -0.48,-0.36 z" id="path49"></path><path fill="#625e56" opacity="0.18" d="m 203.27,156.71 c 0.12,-0.09 0.35,-0.27 0.47,-0.36 -0.12,0.09 -0.35,0.27 -0.47,0.36 z" id="path51"></path><path fill="#625e56" opacity="0.18" d="m 198.28,160.75 c 0.11,-0.1 0.34,-0.29 0.46,-0.38 -0.12,0.09 -0.35,0.28 -0.46,0.38 z" id="path53"></path><path fill="#625e56" opacity="0.18" d="m 336.11,167.91 c 0.5,0.18 1.49,0.56 1.99,0.75 l -0.81,0.5 -1.01,-0.4 z" id="path55"></path><path fill="#625e56" opacity="0.18" d="m 163.33,177.72 c 0.09,-0.11 0.26,-0.32 0.34,-0.43 -0.08,0.11 -0.25,0.32 -0.34,0.43 z" id="path57"></path><path fill="#625e56" opacity="0.18" d="m 297.19,180 1.03,-0.34 0.78,0.54 c -0.51,0.16 -1.52,0.48 -2.03,0.64 z" id="path59"></path><path fill="#625e56" opacity="0.18" d="m 175.37,183.74 c 0.1,-0.12 0.28,-0.35 0.38,-0.46 -0.1,0.11 -0.28,0.34 -0.38,0.46 z" id="path61"></path><path fill="#625e56" opacity="0.18" d="m 56.39,185.25 c 0.04,0.14 0.12,0.42 0.16,0.55 -0.04,-0.13 -0.12,-0.41 -0.16,-0.55 z" id="path63"></path><path fill="#625e56" opacity="0.18" d="m 171.36,188.73 c 0.09,-0.11 0.27,-0.35 0.36,-0.46 -0.09,0.11 -0.27,0.35 -0.36,0.46 z" id="path65"></path><path fill="#625e56" opacity="0.18" d="m 168.35,192.76 c 0.09,-0.12 0.27,-0.36 0.35,-0.48 -0.08,0.12 -0.26,0.36 -0.35,0.48 z" id="path67"></path><path fill="#625e56" opacity="0.18" d="m 230.24,195.63 c 0.12,-0.09 0.35,-0.28 0.47,-0.37 -0.12,0.09 -0.35,0.28 -0.47,0.37 z" id="path69"></path><path fill="#625e56" opacity="0.18" d="m 236.28,207.72 c 0.11,-0.1 0.34,-0.29 0.46,-0.38 -0.12,0.09 -0.35,0.28 -0.46,0.38 z" id="path71"></path><path fill="#625e56" opacity="0.18" d="m 583.25,207.67 c 0.12,-0.09 0.36,-0.27 0.49,-0.36 -0.13,0.09 -0.37,0.27 -0.49,0.36 z" id="path73"></path><path fill="#625e56" opacity="0.18" d="m 391.27,209.28 c 0.11,0.1 0.33,0.3 0.45,0.4 -0.12,-0.1 -0.34,-0.3 -0.45,-0.4 z" id="path75"></path><path fill="#625e56" opacity="0.18" d="m 414.31,214.25 c 0.09,0.12 0.29,0.35 0.38,0.47 -0.09,-0.12 -0.29,-0.35 -0.38,-0.47 z" id="path77"></path><path fill="#625e56" opacity="0.18" d="m 210.26,215.71 c 0.1,-0.11 0.28,-0.35 0.38,-0.47 -0.1,0.12 -0.28,0.36 -0.38,0.47 z" id="path79"></path><path fill="#625e56" opacity="0.18" d="m 400.32,218.28 c 0.1,0.11 0.3,0.34 0.4,0.45 -0.1,-0.11 -0.3,-0.34 -0.4,-0.45 z" id="path81"></path><path fill="#625e56" opacity="0.18" d="m 222.35,221.73 c 0.1,-0.11 0.29,-0.34 0.38,-0.46 -0.09,0.12 -0.28,0.35 -0.38,0.46 z" id="path83"></path><path fill="#625e56" opacity="0.18" d="m 218.34,226.75 c 0.09,-0.12 0.27,-0.36 0.36,-0.48 -0.09,0.12 -0.27,0.36 -0.36,0.48 z" id="path85"></path><path fill="#625e56" opacity="0.18" d="m 131.37,235.84 c 0.05,-0.16 0.16,-0.48 0.21,-0.64 -0.05,0.16 -0.16,0.48 -0.21,0.64 z" id="path87"></path><path fill="#625e56" opacity="0.18" d="m 130.33,238.97 c 0.07,-0.23 0.22,-0.68 0.29,-0.9 -0.07,0.22 -0.22,0.67 -0.29,0.9 z" id="path89"></path><path fill="#625e56" opacity="0.18" d="m 501.98,240.82 c 0.5,-0.2 1.49,-0.6 1.99,-0.8 l -0.17,0.86 -1.01,0.41 z" id="path91"></path><path fill="#625e56" opacity="0.18" d="m 129.43,241.78 c 0.05,-0.16 0.16,-0.5 0.21,-0.67 -0.05,0.17 -0.16,0.51 -0.21,0.67 z" id="path93"></path><path fill="#625e56" opacity="0.18" d="m 361.01,244.05 c 0.51,0.18 1.52,0.54 2.03,0.73 l -0.8,0.5 -1.03,-0.38 z" id="path95"></path><path fill="#625e56" opacity="0.18" d="m 252.4,251.82 c 0.04,-0.16 0.14,-0.47 0.18,-0.63 -0.04,0.16 -0.14,0.47 -0.18,0.63 z" id="path97"></path><path fill="#625e56" opacity="0.18" d="m 188.31,255.8 c 0.06,-0.16 0.18,-0.49 0.24,-0.66 -0.06,0.17 -0.18,0.5 -0.24,0.66 z" id="path99"></path><path fill="#625e56" opacity="0.18" d="m 187.34,258.77 c 0.06,-0.18 0.16,-0.52 0.22,-0.7 -0.06,0.18 -0.16,0.52 -0.22,0.7 z" id="path101"></path><path fill="#625e56" opacity="0.18" d="m 97.35,264.29 c 0.08,0.11 0.24,0.31 0.32,0.41 -0.08,-0.1 -0.24,-0.3 -0.32,-0.41 z" id="path103"></path><path fill="#625e56" opacity="0.18" d="m 102.31,270.31 c 0.09,0.1 0.26,0.3 0.34,0.4 -0.08,-0.1 -0.25,-0.3 -0.34,-0.4 z" id="path105"></path><path fill="#625e56" opacity="0.18" d="m 424.14,279.6 c 0.16,-0.05 0.49,-0.15 0.66,-0.2 -0.17,0.05 -0.5,0.15 -0.66,0.2 z" id="path107"></path><path fill="#625e56" opacity="0.18" d="m 458.2,279.41 c 0.16,0.04 0.49,0.13 0.65,0.17 -0.16,-0.04 -0.49,-0.13 -0.65,-0.17 z" id="path109"></path><path fill="#625e56" opacity="0.18" d="m 112.39,281.24 c 0.09,0.09 0.28,0.28 0.37,0.37 -0.09,-0.09 -0.28,-0.28 -0.37,-0.37 z" id="path111"></path><path fill="#625e56" opacity="0.18" d="m 236.32,288.74 c 0.08,-0.12 0.25,-0.37 0.33,-0.5 -0.08,0.13 -0.25,0.38 -0.33,0.5 z" id="path113"></path><path fill="#625e56" opacity="0.18" d="m 402.28,291.75 c 0.11,-0.1 0.35,-0.29 0.46,-0.38 -0.11,0.09 -0.35,0.28 -0.46,0.38 z" id="path115"></path><path fill="#625e56" opacity="0.18" d="m 163.25,314.36 c 0.15,0.05 0.45,0.15 0.6,0.2 -0.15,-0.05 -0.45,-0.15 -0.6,-0.2 z" id="path117"></path><path fill="#625e56" opacity="0.18" d="m 204.16,314.55 c 0.14,-0.05 0.44,-0.16 0.59,-0.21 -0.15,0.05 -0.45,0.16 -0.59,0.21 z" id="path119"></path><path fill="#625e56" opacity="0.18" d="m 521.34,322.3 c 0.08,0.1 0.25,0.3 0.33,0.39 -0.08,-0.09 -0.25,-0.29 -0.33,-0.39 z" id="path121"></path><path fill="#625e56" opacity="0.18" d="m 257.96,349.23 0.8,-0.47 0.99,0.41 0.17,0.86 c -0.49,-0.2 -1.47,-0.6 -1.96,-0.8 z" id="path123"></path><path fill="#625e56" opacity="0.18" d="m 262.99,350.16 c 0.45,0 1.34,0.02 1.79,0.03 l 0.15,0.86 c -0.49,-0.22 -1.46,-0.67 -1.94,-0.89 z" id="path125"></path><path fill="#625e56" opacity="0.18" d="m 482.33,353.74 c 0.05,-0.15 0.15,-0.46 0.2,-0.61 -0.05,0.15 -0.15,0.46 -0.2,0.61 z" id="path127"></path><path fill="#625e56" opacity="0.18" d="m 121.84,354.9 c 0.56,-0.24 1.67,-0.72 2.23,-0.96 -0.56,0.24 -1.67,0.72 -2.23,0.96 z" id="path129"></path><path fill="#625e56" opacity="0.18" d="m 116.88,355.9 c 0.56,-0.22 1.68,-0.68 2.24,-0.91 -0.56,0.23 -1.68,0.69 -2.24,0.91 z" id="path131"></path><path fill="#625e56" opacity="0.18" d="m 406.27,369.72 c 0.09,-0.12 0.28,-0.36 0.37,-0.48 -0.09,0.12 -0.28,0.36 -0.37,0.48 z" id="path133"></path><path fill="#625e56" opacity="0.18" d="m 312.28,372.3 c 0.11,0.09 0.33,0.29 0.45,0.38 -0.12,-0.09 -0.34,-0.29 -0.45,-0.38 z" id="path135"></path><path fill="#625e56" opacity="0.18" d="m 420.38,372.78 c 0.09,-0.13 0.27,-0.38 0.36,-0.5 -0.09,0.12 -0.27,0.37 -0.36,0.5 z" id="path137"></path><path fill="#625e56" opacity="0.18" d="m 391.26,385.66 c 0.11,-0.1 0.34,-0.29 0.46,-0.39 -0.12,0.1 -0.35,0.29 -0.46,0.39 z" id="path139"></path><path fill="#625e56" opacity="0.18" d="m 236.27,387.3 c 0.12,0.09 0.35,0.28 0.46,0.38 -0.11,-0.1 -0.34,-0.29 -0.46,-0.38 z" id="path141"></path><path fill="#625e56" opacity="0.18" d="m 245.28,394.29 c 0.12,0.09 0.38,0.26 0.5,0.35 -0.12,-0.09 -0.38,-0.26 -0.5,-0.35 z" id="path143"></path><path fill="#625e56" opacity="0.18" d="m 396.29,398.74 c 0.12,-0.09 0.36,-0.28 0.48,-0.38 -0.12,0.1 -0.36,0.29 -0.48,0.38 z" id="path145"></path><path fill="#625e56" opacity="0.18" d="m 235.23,403.36 c 0.12,0.09 0.37,0.27 0.5,0.36 -0.13,-0.09 -0.38,-0.27 -0.5,-0.36 z" id="path147"></path><path fill="#625e56" opacity="0.18" d="m 569.43,410.11 c 0.05,0.17 0.15,0.51 0.2,0.67 -0.05,-0.16 -0.15,-0.5 -0.2,-0.67 z" id="path149"></path><path fill="#625e56" opacity="0.18" d="m 285.03,411.99 c 0.48,0.22 1.46,0.67 1.95,0.9 -0.45,-0.01 -1.36,-0.02 -1.81,-0.03 z" id="path151"></path><path fill="#625e56" opacity="0.18" d="m 289.97,413.12 c 0.5,0.19 1.51,0.57 2.01,0.76 -0.46,0.02 -1.37,0.07 -1.82,0.1 z" id="path153"></path><path fill="#625e56" opacity="0.18" d="m 448.23,413.72 c 0.1,-0.12 0.29,-0.35 0.39,-0.47 -0.1,0.12 -0.29,0.35 -0.39,0.47 z" id="path155"></path><path fill="#625e56" opacity="0.18" d="m 295.99,414.14 c 0.51,0.15 1.53,0.46 2.04,0.62 l -0.78,0.55 -1.04,-0.33 z" id="path157"></path><path fill="#625e56" opacity="0.18" d="m 460.39,419.72 c 0.08,-0.1 0.24,-0.31 0.33,-0.41 -0.09,0.1 -0.25,0.31 -0.33,0.41 z" id="path159"></path><path fill="#625e56" opacity="0.18" d="m 281.98,425.19 0.8,-0.52 1.03,0.38 0.19,0.86 c -0.5,-0.18 -1.52,-0.54 -2.02,-0.72 z" id="path161"></path><path fill="#625e56" opacity="0.18" d="m 429.25,432.66 c 0.11,-0.1 0.34,-0.29 0.46,-0.39 -0.12,0.1 -0.35,0.29 -0.46,0.39 z" id="path163"></path><path fill="#625e56" opacity="0.18" d="m 423.24,437.64 c 0.12,-0.1 0.36,-0.28 0.48,-0.37 -0.12,0.09 -0.36,0.27 -0.48,0.37 z" id="path165"></path><path fill="#625e56" opacity="0.18" d="m 434.31,445.67 c 0.1,-0.08 0.3,-0.25 0.4,-0.33 -0.1,0.08 -0.3,0.25 -0.4,0.33 z" id="path167"></path><path fill="#625e56" opacity="0.18" d="m 2.12,450.13 c 0.18,-0.57 0.55,-1.71 0.74,-2.29 -0.19,0.58 -0.56,1.72 -0.74,2.29 z" id="path169"></path><path fill="#625e56" opacity="0.18" d="m 197.29,450.34 c 0.11,0.08 0.32,0.24 0.43,0.33 -0.11,-0.09 -0.32,-0.25 -0.43,-0.33 z" id="path171"></path><path fill="#625e56" opacity="0.18" d="m 273.01,471.08 c 0.5,0.22 1.49,0.64 1.99,0.86 -0.46,0 -1.37,0 -1.83,0 z" id="path173"></path><path fill="#625e56" opacity="0.18" d="m 277.08,471.92 c 0.49,0.2 1.48,0.6 1.98,0.8 l -0.82,0.47 -1,-0.41 z" id="path175"></path><path fill="#625e56" opacity="0.18" d="m 262.19,482.39 c 0.17,0.05 0.52,0.15 0.69,0.2 -0.17,-0.05 -0.52,-0.15 -0.69,-0.2 z" id="path177"></path><path fill="#625e56" opacity="0.18" d="m 273.95,484.91 c 0.55,0.25 1.66,0.73 2.22,0.97 -0.56,-0.24 -1.67,-0.72 -2.22,-0.97 z" id="path179"></path><path fill="#625e56" opacity="0.18" d="m 2,490.92 c 0.2,0.57 0.6,1.7 0.8,2.27 -0.2,-0.57 -0.6,-1.7 -0.8,-2.27 z" id="path181"></path><path fill="#625e56" opacity="0.18" d="m 262.29,520.66 c 0.11,-0.09 0.33,-0.25 0.44,-0.33 -0.11,0.08 -0.33,0.24 -0.44,0.33 z" id="path183"></path><path fill="#625e56" opacity="0.18" d="m 258.25,523.68 c 0.12,-0.09 0.36,-0.27 0.48,-0.35 -0.12,0.08 -0.36,0.26 -0.48,0.35 z" id="path185"></path><path fill="#625e56" opacity="0.18" d="m 372.43,526.21 c 0.04,0.13 0.13,0.4 0.17,0.53 -0.04,-0.13 -0.13,-0.4 -0.17,-0.53 z" id="path187"></path><path fill="#625e56" opacity="0.18" d="m 374.43,532.16 c 0.05,0.15 0.16,0.44 0.22,0.59 -0.06,-0.15 -0.17,-0.44 -0.22,-0.59 z" id="path189"></path><path fill="#625e56" opacity="0.18" d="m 40.28,546.33 c 0.11,0.08 0.34,0.24 0.46,0.31 -0.12,-0.07 -0.35,-0.23 -0.46,-0.31 z" id="path191"></path><path fill="#625e56" opacity="0.18" d="m 391.35,562.29 c 0.09,0.11 0.25,0.31 0.33,0.41 -0.08,-0.1 -0.24,-0.3 -0.33,-0.41 z" id="path193"></path><path fill="#625e56" opacity="0.18" d="m 168.85,564.91 c 0.57,-0.19 1.73,-0.56 2.3,-0.74 -0.57,0.18 -1.73,0.55 -2.3,0.74 z" id="path195"></path><path fill="#625e56" opacity="0.18" d="m 85.8,565.24 c 0.56,0.18 1.7,0.56 2.27,0.74 -0.57,-0.18 -1.71,-0.56 -2.27,-0.74 z" id="path197"></path><path fill="#625e56" opacity="0.18" d="m 96.8,567.26 c 0.58,0.18 1.72,0.54 2.29,0.72 -0.57,-0.18 -1.71,-0.54 -2.29,-0.72 z" id="path199"></path><path fill="#625e56" opacity="0.18" d="m 406.29,577.34 c 0.1,0.08 0.31,0.24 0.41,0.32 -0.1,-0.08 -0.31,-0.24 -0.41,-0.32 z" id="path201"></path><path fill="#625e56" opacity="0.18" d="m 485.19,588.56 c 0.13,-0.05 0.39,-0.16 0.53,-0.21 -0.14,0.05 -0.4,0.16 -0.53,0.21 z" id="path203"></path><path fill="#625e56" opacity="0.18" d="m 426.29,589.35 c 0.13,0.05 0.39,0.16 0.52,0.21 -0.13,-0.05 -0.39,-0.16 -0.52,-0.21 z" id="path205"></path><path fill="#625e56" opacity="0.18" d="m 476.2,591.57 c 0.15,-0.04 0.43,-0.12 0.58,-0.16 -0.15,0.04 -0.43,0.12 -0.58,0.16 z" id="path207"></path></g><g id="#9cc813ff"><path fill="#9cc813" opacity="1" d="m 467.07,28.28 c 23.45,-3.65 47.58,-3.9 70.88,0.94 0.5,0.19 1.52,0.56 2.02,0.75 2.88,0.01 5.61,1.09 8.36,1.82 19.65,5.6 38.49,15.31 52.9,30.01 11.7,12.03 20.11,27.52 22.55,44.23 1.82,13.9 1.89,28.18 -0.97,41.95 -0.18,0.5 -0.56,1.51 -0.75,2.01 -0.12,3.6 -1.67,6.97 -2.72,10.38 -6.51,18.93 -19.6,35.12 -35.6,46.94 -0.13,0.09 -0.37,0.27 -0.49,0.36 -17.34,12.86 -37.57,21.28 -58.17,27.34 -6.99,1.83 -13.92,4.23 -21.11,5.01 -0.5,0.2 -1.49,0.6 -1.99,0.8 -2.15,0.17 -5.98,2.14 -6.39,-1.27 -12.14,-38.65 -37.14,-73.01 -69.82,-96.9 -0.12,-0.09 -0.37,-0.27 -0.49,-0.36 -20.66,-15 -44.33,-25.77 -69.19,-31.56 -0.5,-0.19 -1.5,-0.58 -2,-0.78 -8.33,-0.92 -16.55,-3.05 -24.97,-3.41 0.57,-1.14 1.42,-2.11 2.3,-3.03 25.4,-27.49 56.98,-49.29 91.74,-63.19 10.34,-3.93 20.9,-7.67 31.83,-9.42 0.51,-0.18 1.53,-0.53 2.03,-0.71 2.63,-0.67 5.33,-1.26 8.06,-1.13 0.5,-0.2 1.49,-0.59 1.99,-0.78 z" id="path210"></path><path fill="#9cc813" opacity="1" d="m 318.41,119.39 c 9.56,-0.14 19.08,1.46 28.51,2.93 0.5,0.2 1.49,0.59 1.98,0.78 2.07,-0.13 4.07,0.58 6.07,1.02 23.15,5.63 45.21,15.92 64.28,30.22 0.12,0.09 0.36,0.27 0.48,0.36 29.13,21.58 51.26,52.34 62.7,86.72 0.38,0.99 0.5,2.02 0.37,3.08 -15.88,1.71 -31.78,3.76 -47.76,4 -1.07,-0.92 -1.35,-2.37 -1.97,-3.56 -4.67,-10.88 -11.05,-20.95 -18.38,-30.22 -0.09,-0.12 -0.29,-0.35 -0.38,-0.47 -19.24,-23.26 -46.45,-40.02 -76.21,-45.59 -0.5,-0.19 -1.49,-0.57 -1.99,-0.75 -8.02,-0.7 -16.05,-2 -24.14,-1.85 -5.44,0.36 -10.88,0.8 -16.32,1.14 0,-3.29 1.15,-6.44 2.16,-9.53 4.51,-13.87 11.96,-26.61 20.6,-38.28 z" id="path212"></path><path fill="#9cc813" opacity="1" d="m 299,180.2 c 33.07,-4.07 67.57,6.69 92.27,29.08 0.11,0.1 0.33,0.3 0.45,0.4 3.03,2.69 5.9,5.57 8.6,8.6 0.1,0.11 0.3,0.34 0.4,0.45 7.24,7.93 13.2,16.97 18.04,26.54 0.55,1.16 1.18,2.34 1.3,3.65 -4.65,0.68 -9.36,0.37 -14.03,0.14 -14.42,-0.13 -28.83,-1.56 -42.99,-4.28 -0.51,-0.19 -1.52,-0.55 -2.03,-0.73 -14.49,-2.48 -28.75,-7.83 -40.97,-16.11 -15.29,-10.4 -26.35,-28.17 -25.98,-46.96 0.73,-0.03 2.18,-0.1 2.91,-0.14 0.51,-0.16 1.52,-0.48 2.03,-0.64 z" id="path214"></path></g><g id="#fabe00ff"><path fill="#fabe00" opacity="1" d="m 442.92,277.05 c 5.15,0.26 10.3,0.99 15.28,2.36 0.16,0.04 0.49,0.13 0.65,0.17 11.57,3.14 22.52,8.58 32.2,15.61 0.96,19.59 -2.51,39.31 -8.52,57.94 -0.05,0.15 -0.15,0.46 -0.2,0.61 -7.2,21.79 -18.78,42.11 -33.71,59.51 -0.1,0.12 -0.29,0.35 -0.39,0.47 -5.68,6.64 -11.85,12.89 -18.52,18.55 -0.12,0.1 -0.35,0.29 -0.46,0.39 -1.81,1.58 -3.61,3.16 -5.53,4.61 -0.12,0.09 -0.36,0.27 -0.48,0.37 -18.08,14.26 -38.95,25.07 -61.13,31.31 -1.4,-14.62 -1.18,-29.31 -1.03,-43.97 0.03,-1.85 0,-3.73 0.43,-5.53 12.49,-5.23 24.33,-12.07 34.78,-20.71 0.12,-0.09 0.36,-0.28 0.48,-0.38 8.83,-7.57 16.88,-16.08 23.61,-25.58 0.09,-0.13 0.27,-0.38 0.36,-0.5 17.33,-24.95 25.94,-56.04 22.82,-86.33 -0.23,-2.96 -1.07,-5.94 -0.64,-8.9 z" id="path308"></path><path fill="#fabe00" opacity="1" d="m 424.8,279.4 c 1.35,-0.46 2.73,-0.75 4.15,-0.88 1.11,1.18 0.74,3 1.08,4.48 4.12,30.35 -4.68,62.05 -23.39,86.24 -0.09,0.12 -0.28,0.36 -0.37,0.48 -4.41,5.57 -9.18,10.89 -14.55,15.55 -0.12,0.1 -0.35,0.29 -0.46,0.39 -8.51,7.51 -17.98,14.23 -28.54,18.51 0.67,-15.45 3.42,-30.81 6.66,-45.93 4.55,-19.18 10.52,-38.56 22.01,-54.83 3.1,-4.33 6.82,-8.23 10.89,-11.66 0.11,-0.1 0.35,-0.29 0.46,-0.38 6.22,-5.35 13.54,-9.42 21.4,-11.77 0.16,-0.05 0.49,-0.15 0.66,-0.2 z" id="path310"></path><path fill="#fabe00" opacity="1" d="m 504.37,306.04 c 2.01,0.61 3.38,2.31 4.88,3.69 4.05,4.16 8.34,8.11 12.09,12.57 0.08,0.1 0.25,0.3 0.33,0.39 21.86,25.31 38.16,55.41 47.76,87.42 0.05,0.17 0.15,0.51 0.2,0.67 9.43,32.56 10.32,68.77 -3.68,100.17 -8.53,19.92 -22.96,36.65 -39.01,50.93 -12.19,10.96 -25.96,20.35 -41.22,26.47 -0.14,0.05 -0.4,0.16 -0.53,0.21 -2.77,1.05 -5.58,1.98 -8.41,2.85 -0.15,0.04 -0.43,0.12 -0.58,0.16 -4.84,1.61 -10.06,1.67 -14.85,3.43 h -14.7 c -6.59,-1.88 -13.51,-2.64 -19.84,-5.44 -0.13,-0.05 -0.39,-0.16 -0.52,-0.21 -7.04,-2.95 -13.65,-6.9 -19.59,-11.69 -0.1,-0.08 -0.31,-0.24 -0.41,-0.32 -5.32,-4.39 -10.23,-9.31 -14.61,-14.64 -0.08,-0.1 -0.24,-0.3 -0.33,-0.41 -7.26,-8.77 -12.81,-18.85 -16.7,-29.54 -0.06,-0.15 -0.17,-0.44 -0.22,-0.59 -0.63,-1.81 -1.24,-3.62 -1.83,-5.42 -0.04,-0.13 -0.13,-0.4 -0.17,-0.53 -4.45,-14.05 -7.35,-28.59 -8.85,-43.23 0.79,-1.28 2.52,-1.18 3.77,-1.73 24.42,-7.18 47.3,-19.42 66.96,-35.58 0.1,-0.08 0.3,-0.25 0.4,-0.33 9.35,-7.7 18,-16.25 25.68,-25.62 0.08,-0.1 0.24,-0.31 0.33,-0.41 26.34,-31.68 41.98,-72.09 43.65,-113.27 z" id="path312"></path></g><g id="#e61874ff"><path fill="#e61874" opacity="1" d="m 143.25,350.49 c 15.82,-1.67 31.65,-3.67 47.57,-4.08 0.96,1.4 1.52,3.03 2.21,4.58 9.2,20.74 24.02,38.84 42.2,52.37 0.12,0.09 0.37,0.27 0.5,0.36 13.85,10.04 29.62,17.42 46.25,21.47 0.5,0.18 1.52,0.54 2.02,0.72 11.52,1.9 23.25,3.8 34.97,2.69 3.75,-0.12 7.47,-0.75 11.22,-0.73 -2.95,16.57 -11.56,31.59 -21.04,45.29 -0.89,1.05 -1.6,2.9 -3.32,2.54 -8.98,-0.32 -17.91,-1.49 -26.77,-2.98 -0.5,-0.2 -1.49,-0.6 -1.98,-0.8 -0.52,0.01 -1.56,0.01 -2.08,0.02 -0.5,-0.22 -1.49,-0.64 -1.99,-0.86 -12.26,-2.06 -24,-6.74 -35.31,-11.83 -44.66,-20.5 -79.97,-60.34 -94.83,-107.2 0.1,-0.39 0.28,-1.17 0.38,-1.56 z" id="path315"></path><path fill="#e61874" opacity="1" d="m 205.82,346 c 2.38,-0.32 4.78,-0.33 7.19,-0.31 12.36,0.39 24.79,0.49 37.01,2.59 0.81,0.76 1.76,0.99 2.83,0.71 1.69,-0.31 3.42,-0.04 5.11,0.24 0.49,0.2 1.47,0.6 1.96,0.8 0.76,0.03 2.3,0.1 3.07,0.13 0.48,0.22 1.45,0.67 1.94,0.89 2.34,-0.1 4.58,0.71 6.83,1.24 14.64,3.84 29.1,9.85 40.52,20.01 0.11,0.09 0.33,0.29 0.45,0.38 11.47,10.38 19.09,25.56 19.05,41.16 -11.09,2.21 -22.55,2 -33.75,0.92 -0.51,-0.16 -1.53,-0.47 -2.04,-0.62 -1.35,0.09 -2.69,0.01 -4.01,-0.26 -0.5,-0.19 -1.51,-0.57 -2.01,-0.76 -0.75,-0.05 -2.24,-0.17 -2.99,-0.23 -0.49,-0.23 -1.47,-0.68 -1.95,-0.9 -14.12,-2.65 -27.38,-9.34 -39.25,-17.35 -0.12,-0.09 -0.38,-0.26 -0.5,-0.35 -3,-2.01 -5.78,-4.3 -8.55,-6.61 -0.11,-0.1 -0.34,-0.29 -0.46,-0.38 -12.82,-11.11 -23.54,-24.81 -30.5,-40.33 z" id="path317"></path><path fill="#e61874" opacity="1" d="m 124.07,353.94 c 1.66,-0.16 3.32,-0.38 4.99,-0.46 1.35,2.03 1.81,4.49 2.65,6.74 12.27,35.66 35.5,67.4 65.58,90.12 0.11,0.08 0.32,0.24 0.43,0.33 19.24,14.5 41.22,25.37 64.47,31.72 0.17,0.05 0.52,0.15 0.69,0.2 2,0.52 4.03,0.99 6.06,1.43 0.54,0.24 1.64,0.71 2.18,0.94 0.71,-0.01 2.12,-0.03 2.83,-0.05 0.55,0.25 1.66,0.73 2.22,0.97 0.68,0.03 2.04,0.09 2.72,0.12 0.57,0.2 1.7,0.6 2.27,0.8 3.63,0.32 7.22,0.89 10.84,1.31 1.06,0.92 2.47,1.38 3.86,0.96 -0.33,0.87 -0.83,1.64 -1.5,2.32 -9.83,10.38 -20.22,20.29 -31.63,28.94 -0.11,0.08 -0.33,0.24 -0.44,0.33 -1.18,0.88 -2.38,1.77 -3.56,2.67 -0.12,0.08 -0.36,0.26 -0.48,0.35 -26.03,18.89 -55.5,33.78 -87.1,40.49 -0.57,0.18 -1.73,0.55 -2.3,0.74 -2.92,0.39 -5.81,0.9 -8.73,1.28 -1.3,-0.68 -2.35,-0.42 -3.16,0.79 -15.53,2.27 -31.29,3.08 -46.95,1.91 -1.38,-1.36 -3.37,-1.36 -5.06,-0.63 -1.95,-0.12 -3.91,-0.22 -5.86,-0.28 -0.57,-0.18 -1.71,-0.54 -2.29,-0.72 -2.92,-0.35 -5.82,-0.83 -8.73,-1.28 -0.57,-0.18 -1.71,-0.56 -2.27,-0.74 -16,-3.31 -31.38,-9.67 -45.06,-18.6 -0.12,-0.07 -0.35,-0.23 -0.46,-0.31 C 21.95,533.98 7.11,515.19 2.8,493.19 2.6,492.62 2.2,491.49 2,490.92 c -0.07,-1.63 -0.16,-3.26 -0.25,-4.87 0.7,-1.7 0.69,-3.67 -0.63,-5.06 -0.08,-1.39 -0.17,-2.77 -0.27,-4.15 -0.25,-4.24 -0.25,-8.49 0,-12.73 0.09,-1.37 0.18,-2.74 0.26,-4.1 1.32,-1.39 1.35,-3.37 0.64,-5.05 0.12,-1.62 0.26,-3.23 0.37,-4.83 0.18,-0.57 0.55,-1.71 0.74,-2.29 4.26,-23.7 18.73,-44.79 37.81,-59.16 22.29,-16.87 49.13,-26.76 76.21,-32.78 0.56,-0.22 1.68,-0.68 2.24,-0.91 0.68,-0.02 2.04,-0.07 2.72,-0.09 0.56,-0.24 1.67,-0.72 2.23,-0.96 z" id="path319"></path></g></g><text xml:space="preserve" style="font-size:165px;line-height:1.95;font-family:sans-serif;-inkscape-font-specification:'sans-serif, Normal';white-space:pre;inline-size:0;fill:#808080;stroke-width:0.75" x="1315.7429" y="1552.6614" id="text1214" transform="matrix(1.0833624,0,0,1.0833624,-205.12596,-746.14079)"><tspan id="tspan1212" x="1315.7429" y="1552.6614" style="font-style:italic;font-variant:normal;font-weight:300;font-stretch:normal;font-size:165px;font-family:'Segoe UI';-inkscape-font-specification:'Segoe UI Light Italic';fill:#808080;stroke-width:0.75">Creating Easy Smart Homes</tspan></text><text xml:space="preserve" id="text1216" style="line-height:1.25;font-family:sans-serif;font-size:27.76914386px;-inkscape-font-specification:'sans-serif, Normal';white-space:pre;shape-inside:url(#rect1218);"></text><text xml:space="preserve" id="text1222" style="line-height:1.25;font-family:sans-serif;font-size:27.76914386px;-inkscape-font-specification:'sans-serif, Normal';white-space:pre;shape-inside:url(#rect1224);"></text><text xml:space="preserve" id="text961" style="line-height:1.25;font-family:sans-serif;font-size:27.76914386px;-inkscape-font-specification:'sans-serif, Normal';white-space:pre;shape-inside:url(#rect963);"></text></svg> 