<svg xmlns="http://www.w3.org/2000/svg" xmlns:xlink="http://www.w3.org/1999/xlink" width="800" zoomAndPan="magnify" viewBox="0 0 600 599.999999" height="800" preserveAspectRatio="xMidYMid meet" version="1.0"><defs><clipPath id="7b2e3581e2"><path d="M 68.25 0 L 531.75 0 L 531.75 600 L 68.25 600 Z M 68.25 0 " clip-rule="nonzero"/></clipPath></defs><g clip-path="url(#7b2e3581e2)"><path fill="#43b02a" d="M 493.808594 561.015625 L 106.265625 561.015625 L 106.265625 62.238281 L 493.808594 62.238281 Z M 512.816406 24.222656 L 419.15625 24.222656 C 418.09375 11.214844 407.316406 0.96875 394.042969 0.96875 L 206.03125 0.96875 C 192.757812 0.96875 181.980469 11.214844 180.917969 24.222656 L 87.257812 24.222656 C 76.746094 24.222656 68.25 32.71875 68.25 43.230469 L 68.25 580.023438 C 68.25 590.535156 76.746094 599.03125 87.257812 599.03125 L 512.816406 599.03125 C 523.328125 599.03125 531.824219 590.535156 531.824219 580.023438 L 531.824219 43.230469 C 531.824219 32.71875 523.328125 24.222656 512.816406 24.222656 " fill-opacity="1" fill-rule="nonzero"/></g><path fill="#43b02a" d="M 210.546875 208.515625 L 454.996094 208.515625 C 465.507812 208.515625 474.003906 200.023438 474.003906 189.457031 C 474.003906 178.996094 465.507812 170.449219 454.996094 170.449219 L 210.546875 170.449219 C 200.03125 170.449219 191.535156 178.996094 191.535156 189.507812 C 191.535156 199.96875 200.03125 208.515625 210.546875 208.515625 " fill-opacity="1" fill-rule="nonzero"/><path fill="#43b02a" d="M 210.546875 301.433594 L 376.363281 301.433594 C 386.875 301.433594 395.371094 292.9375 395.371094 282.425781 C 395.371094 271.914062 386.875 263.417969 376.363281 263.417969 L 210.546875 263.417969 C 200.03125 263.417969 191.535156 271.914062 191.535156 282.425781 C 191.535156 292.9375 200.03125 301.433594 210.546875 301.433594 " fill-opacity="1" fill-rule="nonzero"/><path fill="#43b02a" d="M 210.546875 394.402344 L 423.882812 394.402344 C 434.394531 394.402344 442.890625 385.90625 442.890625 375.394531 C 442.890625 364.882812 434.394531 356.386719 423.882812 356.386719 L 210.546875 356.386719 C 200.03125 356.386719 191.535156 364.882812 191.535156 375.394531 C 191.535156 385.90625 200.03125 394.402344 210.546875 394.402344 " fill-opacity="1" fill-rule="nonzero"/><path fill="#43b02a" d="M 210.546875 487.320312 L 317.214844 487.320312 C 327.726562 487.320312 336.222656 478.824219 336.222656 468.363281 C 336.222656 457.851562 327.726562 449.304688 317.214844 449.304688 L 210.546875 449.304688 C 200.03125 449.304688 191.535156 457.851562 191.535156 468.363281 C 191.535156 478.824219 200.03125 487.320312 210.546875 487.320312 " fill-opacity="1" fill-rule="nonzero"/><path fill="#43b02a" d="M 153.839844 208.515625 L 160.902344 208.515625 C 171.414062 208.515625 179.910156 200.023438 179.910156 189.457031 C 179.910156 178.996094 171.414062 170.449219 160.902344 170.449219 L 153.839844 170.449219 C 143.378906 170.449219 134.832031 178.996094 134.832031 189.457031 C 134.832031 199.96875 143.378906 208.515625 153.839844 208.515625 " fill-opacity="1" fill-rule="nonzero"/><path fill="#43b02a" d="M 153.839844 301.433594 L 158.671875 301.433594 C 169.132812 301.433594 177.679688 292.9375 177.679688 282.425781 C 177.679688 271.914062 169.132812 263.417969 158.671875 263.417969 L 153.839844 263.417969 C 143.378906 263.417969 134.832031 271.914062 134.832031 282.425781 C 134.832031 292.9375 143.378906 301.433594 153.839844 301.433594 " fill-opacity="1" fill-rule="nonzero"/><path fill="#43b02a" d="M 153.839844 394.402344 L 160 394.402344 C 170.511719 394.402344 179.058594 385.90625 179.058594 375.394531 C 179.058594 364.882812 170.511719 356.386719 160 356.386719 L 153.839844 356.386719 C 143.378906 356.386719 134.832031 364.882812 134.832031 375.394531 C 134.832031 385.90625 143.378906 394.402344 153.839844 394.402344 " fill-opacity="1" fill-rule="nonzero"/><path fill="#43b02a" d="M 153.839844 487.320312 L 156.917969 487.320312 C 167.433594 487.320312 175.980469 478.824219 175.980469 468.363281 C 175.980469 457.851562 167.433594 449.304688 156.917969 449.304688 L 153.839844 449.304688 C 143.378906 449.304688 134.832031 457.851562 134.832031 468.363281 C 134.832031 478.824219 143.378906 487.320312 153.839844 487.320312 " fill-opacity="1" fill-rule="nonzero"/></svg>